<svg width="341" height="952" viewBox="0 0 341 952" fill="none" xmlns="http://www.w3.org/2000/svg">
<path d="M451.366 933.344C410.031 961.909 357.166 957.834 315.335 908.866C279 866.937 263.12 823.204 194.57 808.715C-67.7307 753.819 -15.1304 584.522 68.1025 495.214C187.813 367.134 165.624 310.596 182.769 210.92C194.859 141.198 210.977 85.7979 272.732 39.2758C364.859 -30.4448 473.652 0.0713429 534.432 75.928C564.443 113.286 591.211 158.556 609.59 185C658.855 255.897 686.938 273.425 773.63 341.659C939.858 477.671 896.686 650.848 728.199 682.756C584.035 710.016 574.093 710.317 528.638 813.178C509.945 856.855 498.787 900.735 451.366 933.344Z" fill="#FFF6F2"/>
</svg>
