<svg width="172" height="213" viewBox="0 0 172 213" fill="none" xmlns="http://www.w3.org/2000/svg">
<path d="M110.877 87.411C110.877 87.411 111.598 75.7062 87.057 66.2925C87.057 66.2925 106.163 76.0809 110.877 87.411Z" fill="#5C7C47"/>
<path d="M107.119 169.054C107.119 169.054 100.548 108.11 133.872 34.7445C133.872 34.7445 104.289 104.112 109.131 168.13L107.119 169.054Z" fill="#84A064"/>
<path d="M106.832 151.788C106.832 151.788 104.991 149.055 103.527 143.479C103.527 143.479 103.578 146.509 106.809 152.982L106.832 151.788Z" fill="#84A064"/>
<path d="M104.241 144.908C102.407 136.856 98.3362 129.4 93.4759 122.699C99.8602 128.586 109.159 134.512 104.241 144.908Z" fill="#84A064"/>
<path d="M110.282 123.483C110.282 123.483 114.74 113.773 119.601 108.186C119.601 108.186 113.282 117.27 110.333 124.684L110.282 123.483Z" fill="#84A064"/>
<path d="M115.05 93.5828C115.05 93.5828 112.179 88.6559 107.194 83.8463C107.194 83.8463 114.297 92.1027 114.867 94.9601L115.05 93.5828Z" fill="#84A064"/>
<path d="M115.582 91.3391C115.582 91.3391 113.787 85.0107 113.969 81.857C113.969 81.857 114.69 87.6466 116.127 90.1285L115.582 91.3391Z" fill="#84A064"/>
<path d="M121.945 68.5027C121.945 68.5027 125.053 61.8128 130.945 54.3019C130.945 54.3019 124.863 63.2681 121.928 69.6255L121.945 68.5027Z" fill="#84A064"/>
<path d="M125.843 55.8043C125.843 55.8043 125.716 51.8373 124.226 47.0892C124.226 47.0892 125.699 53.8828 125.372 56.9543L125.843 55.8043Z" fill="#84A064"/>
<path d="M117.036 111.461C121.249 102.118 131.851 97.7877 141.23 94.2969C141.071 94.488 136.235 98.9644 131.206 104.046C125.787 109.501 121.37 112.354 117.036 111.461Z" fill="#84A064"/>
<path d="M110.877 87.411C107.097 77.0151 97.091 70.5809 87.057 66.2925C87.057 66.2925 94.7061 69.765 103.459 82.8548C104.75 84.7292 108.108 86.8995 110.877 87.411Z" fill="#84A064"/>
<path d="M104.984 57.143C109.894 65.481 114.657 85.6823 114.657 85.6823C116.634 78.4472 118.852 72.7847 112.934 66.0237C110.611 63.8723 104.984 57.143 104.984 57.143Z" fill="#84A064"/>
<path d="M125.77 51.9444C126.659 43.6149 120.992 35.7625 116.073 29.5367C122.823 42.1422 119.611 49.3047 125.558 51.851C125.558 51.851 125.631 51.8589 125.77 51.9444Z" fill="#84A064"/>
<path d="M128.772 57.2032C133.194 48.0684 142.378 40.9207 152.19 37.6763C150.584 38.7548 146.947 42.6078 146.036 44.0414C140.202 51.8359 135.367 57.091 128.772 57.2032Z" fill="#84A064"/>
<path d="M130.324 43.2212C130.058 39.1779 131.024 35.4791 132.497 31.9059C136.047 23.698 142.256 17.3981 147.37 6.33111C145.27 13.0763 143.147 20.1008 140.32 26.6967C137.689 32.68 134.568 38.3285 130.324 43.2212Z" fill="#84A064"/>
<path d="M117.036 111.46C117.036 111.46 120.032 109.215 124.895 105.299C129.218 101.81 134.962 96.8076 141.301 94.3046C141.301 94.3046 121.343 100.041 117.036 111.46Z" fill="#5C7C47"/>
<path d="M104.256 144.921C104.256 144.921 107.937 139.082 93.4779 122.699C93.4834 122.629 100.715 133.521 104.256 144.921Z" fill="#5C7C47"/>
<path d="M114.691 85.7056C114.691 85.7056 109.397 65.5019 104.99 57.143C104.99 57.143 113.013 67.2323 113.968 71.8385C114.922 76.4447 114.691 85.7056 114.691 85.7056Z" fill="#5C7C47"/>
<path d="M128.772 57.2032C128.772 57.2032 133.901 43.7541 152.19 37.6763C152.19 37.6763 145.462 41.2596 141.936 44.6367C138.337 48.006 131.223 55.5204 128.772 57.2032Z" fill="#5C7C47"/>
<path d="M116.002 29.5299C123.556 42.1532 125.7 51.9377 125.7 51.9377C125.627 51.9298 125.56 51.8523 125.488 51.8443C119.541 49.2981 122.752 42.1355 116.002 29.5299Z" fill="#5C7C47"/>
<path d="M132.499 31.9059C136.049 23.6982 142.256 17.3986 147.369 6.33187C144.203 14.3698 138.481 24.7366 134.581 32.6951C131.912 38.2514 130.258 43.1431 130.258 43.1431C130.061 39.1776 130.953 35.471 132.499 31.9059Z" fill="#5C7C47"/>
<path d="M108.163 168.596L107.119 169.054C107.119 169.054 100.548 108.11 133.872 34.7445C133.872 34.7445 132.904 37.0492 131.329 41.0594C103.458 107.562 107.536 162.236 108.163 168.596Z" fill="#5C7C47"/>
<path d="M124.909 109.58L121.479 108.168C121.784 107.94 122.089 107.712 122.393 107.484L125.742 109.019C125.442 109.181 125.209 109.418 124.909 109.58Z" fill="#94AA71"/>
<path d="M127.137 107.879L123.564 106.45C123.869 106.222 124.174 105.994 124.478 105.766L127.827 107.301C127.599 107.472 127.365 107.708 127.137 107.879Z" fill="#94AA71"/>
<path d="M130.219 100.974L133.459 101.737C133.308 101.848 133.156 101.958 133.071 102.14L129.608 101.48C129.84 101.251 129.991 101.14 130.219 100.974Z" fill="#94AA71"/>
<path d="M104.441 134.593L103.27 137.309C103.146 136.945 102.947 136.571 102.754 136.128L104.109 133.994C104.243 134.22 104.376 134.446 104.441 134.593Z" fill="#94AA71"/>
<path d="M102.916 131.896L102.053 134.509C101.785 134.057 101.518 133.605 101.255 133.084L102.44 131.209C102.643 131.513 102.782 131.67 102.916 131.896Z" fill="#94AA71"/>
<path d="M110.877 87.411C110.877 87.411 111.598 75.7062 87.057 66.2925C87.057 66.2925 106.163 76.0809 110.877 87.411Z" fill="#5C7C47"/>
<path d="M110.877 87.411C107.097 77.0151 97.091 70.5809 87.057 66.2925C87.057 66.2925 94.7061 69.765 103.459 82.8548C104.75 84.7292 108.108 86.8995 110.877 87.411Z" fill="#84A064"/>
<path d="M107.49 81.2322L101.558 80.1798C101.364 79.906 101.099 79.6241 100.9 79.4127L106.505 80.0504C106.837 80.4027 107.163 80.8175 107.49 81.2322Z" fill="#94AA71"/>
<path d="M105.655 78.7906L99.8544 77.8758C99.6555 77.6638 99.5275 77.4599 99.3239 77.3105L104.386 77.5731C104.859 77.9426 105.257 78.3666 105.655 78.7906Z" fill="#94AA71"/>
<path d="M93.6355 70.9723L96.0911 70.8739C96.9193 71.3707 97.7475 71.8675 98.4995 72.4211L95.454 72.7122C94.8541 72.0449 94.2448 71.5086 93.6355 70.9723Z" fill="#94AA71"/>
<path d="M114.047 74.1731L116.445 73.5088C116.542 74.2106 116.571 74.8348 116.595 75.5274L114.255 76.4059C114.163 75.6358 114.071 74.8657 114.047 74.1731Z" fill="#94AA71"/>
<path d="M112.887 69.1649L114.506 68.125C114.837 68.65 115.099 69.0973 115.356 69.6131L113.698 71.2006C113.519 70.6255 113.203 69.8952 112.887 69.1649Z" fill="#94AA71"/>
<path d="M112.149 67.532L113.461 66.5971C113.524 66.7425 113.664 66.8288 113.727 66.9741L112.4 68.1133C112.342 67.8999 112.207 67.7454 112.149 67.532Z" fill="#94AA71"/>
<path d="M136.443 54.5261L133.579 52.9504C134.356 52.235 135.133 51.5196 135.915 50.7372L139.056 52.483C138.203 53.2565 137.354 53.9629 136.443 54.5261Z" fill="#94AA71"/>
<path d="M139.774 51.6367L136.641 49.9802C136.875 49.7416 137.104 49.5693 137.338 49.3307L140.552 50.8635C140.246 51.0933 140.007 51.3981 139.774 51.6367Z" fill="#94AA71"/>
<path d="M143.93 46.5781L140.85 45.5766C140.925 45.5213 141.001 45.4661 141.077 45.4108L144.63 45.8262C144.394 46.1192 144.162 46.3487 143.93 46.5781Z" fill="#94AA71"/>
<path d="M145.961 43.9029C145.88 44.023 145.8 44.1431 145.719 44.2632L142.588 43.891C142.663 43.8351 142.739 43.7793 142.82 43.6592L146.435 43.3108C146.274 43.551 146.117 43.727 145.961 43.9029Z" fill="#94AA71"/>
<path d="M123.548 45.4329L124.729 44.4709C124.856 44.7643 124.91 45.0485 124.964 45.3328L123.984 46.5974C123.861 46.2352 123.739 45.873 123.548 45.4329Z" fill="#94AA71"/>
<path d="M122.29 42.0502L123.406 40.9414C123.597 41.3815 123.856 41.8996 124.047 42.3398L122.989 43.6641C122.735 43.0772 122.549 42.5683 122.29 42.0502Z" fill="#94AA71"/>
<path d="M135.374 36.3203L133.044 36.3024C133.396 35.4591 133.747 34.6157 134.171 33.7814L136.949 33.6504C136.448 34.5434 135.875 35.4274 135.374 36.3203Z" fill="#94AA71"/>
<path d="M136.041 29.8456L138.879 29.7911C138.533 30.564 138.115 31.3278 137.692 32.1591L134.93 32.155C135.276 31.3822 135.622 30.6094 136.041 29.8456Z" fill="#94AA71"/>
<path d="M137.049 27.7659L139.79 27.6349C139.705 27.8218 139.615 28.0739 139.529 28.2608L136.797 28.2614C136.883 28.0745 136.963 27.9528 137.049 27.7659Z" fill="#94AA71"/>
<path d="M139.686 22.523L142.189 21.8287C142.098 22.0843 142.008 22.3399 141.917 22.5955L139.677 22.6551C139.61 22.5803 139.682 22.589 139.686 22.523Z" fill="#94AA71"/>
<path d="M141.181 19.479L143.471 18.0539C143.293 18.5108 143.186 18.9767 143.008 19.4335L141.008 19.868C141.017 19.7323 141.099 19.6057 141.181 19.479Z" fill="#94AA71"/>
<path d="M76.0259 41.0495L75.5974 38.6388C72.9403 38.2944 70.1118 42.2548 70.1118 42.2548C70.8832 45.8708 71.5689 49.3147 72.2546 52.6724C72.2546 52.7585 72.2546 53.7055 72.2546 53.7916C73.1974 58.4408 74.1403 62.0568 74.9974 66.3616C74.9974 66.4477 74.9974 67.1365 74.9974 67.3087C76.1116 72.991 77.3116 77.8124 78.4259 83.0642C78.4259 83.1503 78.3401 83.753 78.4259 83.8391C79.6258 89.6075 80.8258 94.7732 81.94 100.456C81.94 100.542 81.6829 101.144 81.6829 101.23C82.7972 106.913 84.1685 112.165 85.2828 118.105C85.2828 118.191 85.1971 118.88 85.2828 118.966C86.3971 124.735 87.5113 130.159 88.7113 136.53C88.7113 136.616 88.6256 137.305 88.6256 137.305C89.3113 141.351 90.2541 145.053 91.0255 149.444L96.9396 148.239C95.9968 143.848 95.3968 140.06 94.6254 136.013C94.6254 135.927 94.2825 135.497 94.2825 135.41C92.9969 129.039 92.2255 123.529 91.0255 117.847C91.0255 117.761 90.5112 117.158 90.5112 117.072C89.3113 111.045 88.4541 105.793 87.3399 100.111C87.3399 100.025 86.997 99.3363 86.997 99.1641C85.8828 93.4818 85.1114 88.4882 83.9971 82.7198C83.9971 82.6337 83.6543 81.945 83.6543 81.8589C82.6257 76.607 81.94 71.6996 80.9115 66.0172C80.9115 65.9311 80.5687 65.2424 80.5687 65.1563C79.7972 60.8515 79.3687 57.2355 78.5116 52.5002C78.5116 52.328 78.083 51.2949 77.9973 51.1227C77.2259 47.9371 76.6259 44.5794 76.0259 41.0495Z" fill="#84A064"/>
<path d="M75.4263 67.8253C75.4263 67.8253 77.3119 66.7061 79.369 67.0504L81.9404 81.4284C81.9404 81.4284 80.7404 82.0311 78.4262 81.6006C78.4262 81.6006 77.3119 74.7991 75.4263 67.8253Z" fill="#94AA6A"/>
<path d="M82.0264 101.661C82.0264 101.661 84.7691 100.542 85.712 100.8L88.7976 116.642C88.7976 116.642 87.8548 116.986 85.5406 116.9C85.5406 116.814 83.312 105.707 82.0264 101.661Z" fill="#94AA6A"/>
<path d="M78.5972 84.2696C78.5972 84.2696 80.5685 83.6669 81.8542 83.4947L85.0256 98.4754C85.0256 98.4754 82.797 99.1642 81.8542 99.4224C81.9399 99.5085 79.54 87.1107 78.5972 84.2696Z" fill="#94AA6A"/>
<path d="M91.2825 148.583L88.9683 137.821C88.9683 137.821 90.3397 136.96 92.8253 137.046L94.3681 147.894L91.2825 148.583Z" fill="#94AA6A"/>
<path d="M85.6255 119.483C85.6255 119.483 88.1111 118.363 89.8254 118.966L92.7396 134.463C92.7396 134.463 90.9396 135.152 88.8825 134.808C88.8825 134.808 86.9969 123.615 85.6255 119.483Z" fill="#94AA6A"/>
<path d="M72.855 54.3083C72.855 54.3083 75.2549 53.189 76.1977 53.4473C77.1406 53.7056 78.1691 64.898 78.1691 64.898C78.1691 64.898 76.112 65.5007 75.2549 65.1563C75.2549 65.2424 73.0264 56.2885 72.855 54.3083Z" fill="#94AA6A"/>
<path d="M70.1118 42.2548C70.1118 42.2548 70.7118 43.4602 72.5117 42.7714C74.3117 42.0826 75.7688 39.8441 75.7688 39.8441L75.5974 38.6388L70.1118 42.2548Z" fill="#668950"/>
<path opacity="0.2" d="M89.311 136.702L91.4538 146.775L89.4825 136.702H89.311Z" fill="#84A064"/>
<path opacity="0.2" d="M72.9404 53.3612C72.9404 53.3612 74.9118 61.8847 75.4261 66.3617L75.7689 66.2756C75.7689 66.2756 73.369 55.1693 73.2833 53.2751L72.9404 53.3612Z" fill="#84A064"/>
<path opacity="0.2" d="M73.7119 53.189L75.8547 63.2622L73.9691 53.189H73.7119Z" fill="#84A064"/>
<path opacity="0.2" d="M74.1396 41.566L75.7682 49.1425L74.4825 41.2216L74.1396 41.566Z" fill="#84A064"/>
<path opacity="0.2" d="M74.8257 40.4468L77.1399 52.0697L75.1685 40.3607L74.8257 40.4468Z" fill="#84A064"/>
<path opacity="0.2" d="M76.7114 52.5863C76.7114 52.5863 78.5971 61.1959 78.9399 65.4146L79.3685 65.3285C79.3685 65.3285 77.0543 55.4275 77.3114 52.5863H76.7114Z" fill="#84A064"/>
<path opacity="0.2" d="M78.3403 65.9312C78.3403 65.9312 80.5688 75.0573 81.5117 82.3755L81.8545 82.2894C81.8545 82.2894 78.8546 67.567 79.026 66.1034L78.3403 65.9312Z" fill="#84A064"/>
<path opacity="0.2" d="M90.854 136.444C90.854 136.444 92.7397 143.417 93.3396 149.1L93.6825 149.014C93.6825 149.014 91.3683 137.649 91.6254 136.53L90.854 136.444Z" fill="#84A064"/>
<path opacity="0.2" d="M79.5396 66.2756L81.3395 75.5739L79.9681 66.0173L79.5396 66.2756Z" fill="#84A064"/>
<path opacity="0.2" d="M82.4542 82.1172L81.7686 77.5541L82.7971 81.8589L82.4542 82.1172Z" fill="#84A064"/>
<path opacity="0.2" d="M92.4826 136.099L91.7969 131.45L92.8254 135.841L92.4826 136.099Z" fill="#84A064"/>
<path opacity="0.2" d="M75.5972 66.8781C75.5972 66.8781 78.4257 79.1038 78.7685 82.4615H79.3685C79.3685 82.4615 77.9114 77.6401 76.1114 66.7921L75.5972 66.8781Z" fill="#84A064"/>
<path opacity="0.2" d="M80.5684 83.2364C80.5684 83.2364 83.2254 93.9984 83.7397 99.5946L84.1683 99.5085C84.1683 99.5085 81.7683 87.7995 81.2541 83.1503L80.5684 83.2364Z" fill="#84A064"/>
<path opacity="0.2" d="M86.0542 118.622C86.0542 118.622 88.8827 130.417 89.4827 136.53L89.9112 136.357C89.9112 136.357 87.3399 123.529 86.6542 118.45L86.0542 118.622Z" fill="#84A064"/>
<path opacity="0.2" d="M81.9399 82.6338L83.997 92.1905C83.997 92.1905 82.9685 85.3889 82.4542 82.8921L81.9399 82.6338Z" fill="#84A064"/>
<path opacity="0.2" d="M88.8828 117.675L90.9399 127.231C90.9399 127.231 89.9114 120.43 89.3971 117.933L88.8828 117.675Z" fill="#84A064"/>
<path opacity="0.2" d="M82.2824 100.197L81.4253 95.0316L82.6253 100.111L82.2824 100.197Z" fill="#84A064"/>
<path opacity="0.2" d="M84.6826 100.197C84.6826 100.197 87.254 110.529 88.0254 117.589L88.5396 117.503C88.5396 117.503 85.7969 106.482 85.2826 100.025L84.6826 100.197Z" fill="#84A064"/>
<path opacity="0.2" d="M85.8828 100.111C85.8828 100.111 88.0256 109.237 89.2256 117.417L89.6541 117.33C89.6541 117.33 86.14 101.575 86.3971 100.025L85.8828 100.111Z" fill="#84A064"/>
<path opacity="0.2" d="M85.8826 117.933L84.5112 110.787L86.2255 117.847L85.8826 117.933Z" fill="#84A064"/>
<path opacity="0.2" d="M95.1395 148.755L93.7681 141.609L95.4823 148.669L95.1395 148.755Z" fill="#84A064"/>
<path d="M72.9403 42.3409C74.7402 41.4799 75.5974 39.758 75.5974 38.9832V38.6388C72.9403 38.2944 70.1118 42.2548 70.1118 42.2548C70.1118 42.2548 70.7975 43.4601 72.9403 42.3409Z" fill="#E2D6C0"/>
<path d="M70.626 42.0826C70.626 42.0826 73.1116 39.1554 74.9973 38.9832C75.5973 40.0163 71.9117 43.4602 70.626 42.0826Z" fill="#C6B69D"/>
<path d="M90.94 118.019C88.2829 118.191 87.1686 118.277 85.1973 119.052V117.847C88.3686 117.503 88.7114 117.416 90.34 116.814L90.94 118.019Z" fill="#E2D6C0"/>
<path opacity="0.4" d="M72.4259 41.6521C72.0831 41.1356 72.5973 40.1885 73.6259 39.5858C73.883 39.4137 74.1402 39.3276 74.3116 39.1554C72.5973 39.758 70.626 42.0826 70.626 42.0826C71.1402 42.5992 71.9974 42.427 72.7688 41.9104C72.6831 41.8243 72.5116 41.7382 72.4259 41.6521Z" fill="#C6B69D"/>
<path d="M72.5116 51.7254L70.626 43.0297C70.626 43.0297 71.4831 43.7185 73.883 43.288L75.1687 51.2088C75.2544 51.2088 74.6544 52.0697 72.5116 51.7254Z" fill="#94AA6A"/>
<path d="M85.1973 119.052L85.283 119.397C85.283 119.397 86.2258 118.708 87.94 118.45C89.5686 118.191 91.1114 118.622 91.1114 118.622L91.0257 118.019C90.94 118.019 88.0258 117.933 85.1973 119.052Z" fill="#668950"/>
<path d="M88.54 137.391L88.6257 137.735C88.6257 137.735 89.5686 136.96 90.94 136.788C92.3971 136.616 94.6256 136.788 94.6256 136.788L94.5399 136.271C94.5399 136.185 90.1686 136.185 88.54 137.391Z" fill="#668950"/>
<path d="M94.5399 136.185C91.9685 136.616 90.4257 136.271 88.54 137.391V136.013C91.2828 135.841 92.5685 136.013 94.1113 134.894L94.5399 136.185Z" fill="#E2D6C0"/>
<path d="M81.5977 101.23L81.6834 101.575C81.6834 101.575 83.0548 100.714 84.5976 100.456C86.0547 100.197 87.3404 100.628 87.3404 100.628L87.2546 100.111C87.2546 100.197 84.2547 99.5085 81.5977 101.23Z" fill="#668950"/>
<path d="M87.2544 100.197C84.8544 100.111 84.1687 100.369 81.6831 101.23L81.8545 100.025C84.3402 99.3363 85.1973 98.9058 86.8258 98.9919L87.2544 100.197Z" fill="#E2D6C0"/>
<path d="M78.3398 83.8391L78.4256 84.1834C78.4256 84.1834 79.9684 83.3225 81.6826 83.0642C83.3968 82.892 83.9111 83.0642 83.9111 83.0642L83.8254 82.8059C83.8254 82.892 80.9969 82.4615 78.3398 83.8391Z" fill="#668950"/>
<path d="M83.8261 82.892C81.5119 82.892 80.9119 83.1503 78.3406 83.8391L78.2549 82.4615C80.9977 82.4615 81.5976 82.5476 83.3976 81.6006L83.8261 82.892Z" fill="#E2D6C0"/>
<path d="M74.9976 67.3087L75.0833 67.6531C75.0833 67.6531 75.6833 67.0504 76.9689 66.7922C78.2546 66.5339 80.826 66.5339 80.826 66.5339L80.7402 66.2756C80.7402 66.1034 76.7118 65.759 74.9976 67.3087Z" fill="#668950"/>
<path d="M80.74 66.1034C78.083 66.3617 76.883 66.4478 74.9973 67.2227L74.9116 65.8451C76.883 65.9312 77.6544 65.6729 80.3115 64.812L80.74 66.1034Z" fill="#E2D6C0"/>
<path d="M72.2549 53.7917L72.3406 54.2222C72.3406 54.2222 74.1405 53.2751 75.8548 53.0168C77.569 52.7586 78.4261 53.0168 78.4261 53.0168L78.3404 52.5864C78.3404 52.5864 73.6263 52.6725 72.2549 53.7917Z" fill="#668950"/>
<path d="M78.3405 52.5864C75.512 52.7586 75.0834 53.103 72.2549 53.7917L72.0835 52.4142C75.0834 52.242 75.3405 51.8115 77.8262 51.2089L78.3405 52.5864Z" fill="#E2D6C0"/>
<path d="M53.5692 104.588L52.2835 102.694C49.7979 103.469 48.5122 107.946 48.5122 107.946C50.3979 110.701 52.1978 113.284 53.9121 115.781C53.9978 115.867 54.2549 116.642 54.3406 116.728C56.7405 120.258 58.7976 122.927 61.0261 126.112C61.1118 126.198 61.2833 126.801 61.369 126.887C64.2832 131.192 66.9402 134.722 69.683 138.682C69.7687 138.768 69.8544 139.285 69.9402 139.371C72.9401 143.762 75.7686 147.55 78.6828 151.855C78.7685 151.941 78.6828 152.543 78.7685 152.63C81.6827 156.934 84.6826 160.809 87.6825 165.286C87.7682 165.372 87.8539 165.888 87.9396 165.974C90.8538 170.365 93.6823 174.412 96.8537 179.319C96.8537 179.405 97.0251 180.008 97.0251 180.008C99.0822 183.107 101.054 185.863 103.196 189.22L108.253 185.863C106.025 182.591 104.139 179.578 102.082 176.564C101.996 176.478 101.654 176.22 101.568 176.134C98.225 171.312 95.7394 167.008 92.8252 162.703C92.7395 162.617 92.1395 162.358 92.0538 162.272C88.9682 157.709 86.3968 153.663 83.4826 149.358C83.3969 149.272 82.8826 148.841 82.8826 148.755C79.9684 144.45 77.5685 140.576 74.74 136.185C74.6543 136.099 74.14 135.669 74.14 135.583C71.483 131.536 69.1688 127.748 66.3403 123.443C66.2546 123.357 65.7403 122.927 65.7403 122.84C63.5975 119.569 61.969 116.728 59.6547 113.112C59.569 113.026 58.8833 112.251 58.7976 112.165C56.912 109.84 55.2834 107.257 53.5692 104.588Z" fill="#84A064"/>
<path d="M61.7979 127.145C61.7979 127.145 63.1692 125.423 65.1406 124.907L72.2547 135.927C72.2547 135.927 71.3976 136.96 69.0834 137.563C69.1691 137.563 65.912 132.225 61.7979 127.145Z" fill="#94AA6A"/>
<path d="M79.0254 152.888C79.0254 152.888 81.1682 150.822 82.111 150.649L90.1679 162.617C90.1679 162.617 89.3965 163.305 87.2537 164.166C87.2537 164.166 81.5967 155.729 79.0254 152.888Z" fill="#94AA6A"/>
<path d="M70.1973 139.715C70.1973 139.715 71.8258 138.338 72.8543 137.735L80.7398 149.014C80.7398 149.014 78.9399 150.477 78.1685 151.08C78.2542 151.08 71.9115 141.695 70.1973 139.715Z" fill="#94AA6A"/>
<path d="M103.111 188.445L97.4536 180.352C97.4536 180.352 98.3964 179.061 100.711 178.114L105.682 186.637L103.111 188.445Z" fill="#94AA6A"/>
<path d="M88.2822 166.319C88.2822 166.319 90.1679 164.425 91.8821 164.253L99.6819 176.048C99.6819 176.048 98.3105 177.339 96.3391 177.856C96.3391 177.856 90.9393 169.246 88.2822 166.319Z" fill="#94AA6A"/>
<path d="M55.0264 116.9C55.0264 116.9 56.8263 115.006 57.7691 114.834C58.712 114.661 63.3404 123.615 63.3404 123.615C63.3404 123.615 61.7119 124.907 60.7691 124.993C60.8548 125.079 55.8835 118.536 55.0264 116.9Z" fill="#94AA6A"/>
<path d="M48.5122 107.946C48.5122 107.946 49.455 108.721 50.9121 107.429C52.3692 106.138 52.9692 103.641 52.9692 103.641L52.3692 102.78L48.5122 107.946Z" fill="#668950"/>
<path opacity="0.2" d="M97.2822 179.319L102.596 186.81L97.4536 179.147L97.2822 179.319Z" fill="#84A064"/>
<path opacity="0.2" d="M54.7695 116.039C54.7695 116.039 59.398 122.41 61.3693 125.94L61.6265 125.768C61.6265 125.768 55.7981 117.416 55.0267 115.867L54.7695 116.039Z" fill="#84A064"/>
<path opacity="0.2" d="M55.4551 115.694L60.7692 123.185L55.6265 115.522L55.4551 115.694Z" fill="#84A064"/>
<path opacity="0.2" d="M51.9409 105.707L55.9694 111.39L52.1981 105.277L51.9409 105.707Z" fill="#84A064"/>
<path opacity="0.2" d="M52.1982 104.502L58.1981 113.37L52.4554 104.33L52.1982 104.502Z" fill="#84A064"/>
<path opacity="0.2" d="M57.9404 113.973C57.9404 113.973 62.4832 120.43 64.2831 123.787L64.626 123.529C64.626 123.529 59.2261 116.125 58.5404 113.714L57.9404 113.973Z" fill="#84A064"/>
<path opacity="0.2" d="M63.855 124.39C63.855 124.39 68.912 131.106 72.169 136.874L72.4262 136.702C72.4262 136.702 64.8835 125.595 64.5407 124.304L63.855 124.39Z" fill="#84A064"/>
<path opacity="0.2" d="M98.6538 178.372C98.6538 178.372 102.682 183.538 105.082 188.015L105.339 187.843C105.339 187.843 99.5109 179.319 99.2538 178.2L98.6538 178.372Z" fill="#84A064"/>
<path opacity="0.2" d="M65.0547 124.218L69.8545 131.278L65.3975 123.874L65.0547 124.218Z" fill="#84A064"/>
<path opacity="0.2" d="M73.0259 136.358L70.7974 132.742L73.1973 136.013L73.0259 136.358Z" fill="#84A064"/>
<path opacity="0.2" d="M99.9397 177.425L97.7969 173.895L100.197 177.081L99.9397 177.425Z" fill="#84A064"/>
<path opacity="0.2" d="M61.7119 126.37C61.7119 126.37 68.3974 135.41 69.7688 138.165L70.2831 137.907C70.2831 137.907 67.3689 134.463 62.0548 126.112L61.7119 126.37Z" fill="#84A064"/>
<path opacity="0.2" d="M71.6543 137.993C71.6543 137.993 77.6541 145.914 79.9683 150.391L80.3112 150.133C80.3112 150.133 74.2256 141.351 72.1686 137.649L71.6543 137.993Z" fill="#84A064"/>
<path opacity="0.2" d="M88.3682 165.458C88.3682 165.458 94.8823 174.154 97.4536 179.061L97.7965 178.803C97.7965 178.803 91.1967 169.16 88.8824 165.113L88.3682 165.458Z" fill="#84A064"/>
<path opacity="0.2" d="M72.6831 136.96L77.6544 144.106C77.6544 144.106 74.4831 138.854 73.1974 136.96H72.6831Z" fill="#84A064"/>
<path opacity="0.2" d="M90.5972 163.564L95.5685 170.71C95.5685 170.71 92.3971 165.458 91.1114 163.564H90.5972Z" fill="#84A064"/>
<path opacity="0.2" d="M78.8546 151.51L76.2832 147.55L79.1117 151.338L78.8546 151.51Z" fill="#84A064"/>
<path opacity="0.2" d="M80.9971 150.563C80.9971 150.563 86.8255 158.226 89.8254 163.822L90.2539 163.478C90.2539 163.478 84.0827 155.299 81.5113 150.133L80.9971 150.563Z" fill="#84A064"/>
<path opacity="0.2" d="M82.0259 149.961C82.0259 149.961 86.9972 156.676 90.7685 163.047L91.1113 162.789C91.1113 162.789 82.7116 150.994 82.4544 149.616L82.0259 149.961Z" fill="#84A064"/>
<path opacity="0.2" d="M87.9397 164.855L84.3398 159.517L88.2826 164.683L87.9397 164.855Z" fill="#84A064"/>
<path opacity="0.2" d="M106.625 186.982L103.025 181.558L106.882 186.723L106.625 186.982Z" fill="#84A064"/>
<path d="M51.1693 106.913C52.455 105.449 52.7121 103.641 52.455 102.952L52.2835 102.694C49.7979 103.469 48.5122 107.946 48.5122 107.946C48.5122 107.946 49.6265 108.635 51.1693 106.913Z" fill="#E2D6C0"/>
<path d="M48.9404 107.601C48.9404 107.601 50.2261 104.158 51.8546 103.211C52.7118 103.813 50.569 108.204 48.9404 107.601Z" fill="#C6B69D"/>
<path d="M92.568 162.961C90.2538 164.166 89.311 164.769 87.6825 166.147L87.2539 165.113C89.9967 163.564 90.3395 163.305 91.5395 162.1L92.568 162.961Z" fill="#E2D6C0"/>
<path opacity="0.4" d="M50.4832 106.482C49.969 106.138 50.1404 105.191 50.8261 104.244C50.9975 103.985 51.1689 103.813 51.3404 103.641C49.8833 104.846 48.9404 107.601 48.9404 107.601C49.5404 107.86 50.2261 107.343 50.8261 106.568C50.7404 106.568 50.569 106.568 50.4832 106.482Z" fill="#C6B69D"/>
<path d="M53.8264 114.92L49.2837 108.376C49.2837 108.376 50.3122 108.549 52.3693 107.257L56.2263 113.37C56.1406 113.37 55.8835 114.317 53.8264 114.92Z" fill="#94AA6A"/>
<path d="M87.7686 166.147L87.94 166.405C87.94 166.405 88.6257 165.458 89.9971 164.511C91.4542 163.65 92.9113 163.391 92.9113 163.391L92.6541 162.961C92.5684 162.961 89.9113 164.08 87.7686 166.147Z" fill="#668950"/>
<path d="M96.854 180.18L97.0254 180.439C97.0254 180.439 97.6254 179.405 98.8254 178.717C100.111 178.028 102.168 177.253 102.168 177.253L101.911 176.823C101.911 176.736 97.8825 178.458 96.854 180.18Z" fill="#668950"/>
<path d="M101.911 176.736C99.6821 178.114 98.225 178.544 96.8536 180.18L96.3394 179.061C98.825 177.769 100.025 177.425 101.054 175.875L101.911 176.736Z" fill="#E2D6C0"/>
<path d="M78.5972 152.716L78.7686 152.974C78.7686 152.974 79.7971 151.683 80.9971 150.822C82.2828 149.961 83.5685 149.874 83.5685 149.874L83.3113 149.53C83.3113 149.53 80.3971 150.133 78.5972 152.716Z" fill="#668950"/>
<path d="M83.3116 149.53C81.1688 150.477 80.5688 150.994 78.5975 152.629L78.3403 151.596C80.3974 149.961 80.9974 149.272 82.5402 148.669L83.3116 149.53Z" fill="#E2D6C0"/>
<path d="M69.854 139.457L70.0254 139.715C70.0254 139.715 71.1397 138.338 72.5968 137.477C74.0539 136.616 74.6539 136.616 74.6539 136.616L74.4824 136.444C74.4824 136.357 71.8254 137.218 69.854 139.457Z" fill="#668950"/>
<path d="M74.4828 136.357C72.34 137.304 71.9115 137.735 69.7687 139.371L69.2544 138.252C71.74 137.132 72.34 136.96 73.6257 135.41L74.4828 136.357Z" fill="#E2D6C0"/>
<path d="M61.2837 126.887L61.4551 127.145C61.4551 127.145 61.798 126.37 62.8265 125.682C63.855 124.907 66.255 123.874 66.255 123.874L66.0836 123.615C66.0836 123.615 62.3122 124.993 61.2837 126.887Z" fill="#668950"/>
<path d="M66.0832 123.615C63.6832 124.907 62.6547 125.509 61.2833 126.887L60.769 125.768C62.569 124.993 63.2547 124.562 65.3118 122.754L66.0832 123.615Z" fill="#E2D6C0"/>
<path d="M54.2549 116.728L54.4263 117.072C54.4263 117.072 55.712 115.522 57.2548 114.661C58.7119 113.714 59.569 113.628 59.569 113.628L59.3976 113.284C59.3976 113.284 55.112 115.264 54.2549 116.728Z" fill="#668950"/>
<path d="M59.3975 113.284C56.9118 114.575 56.569 115.006 54.2548 116.728L53.6548 115.608C56.3119 114.231 56.3976 113.8 58.4546 112.337L59.3975 113.284Z" fill="#E2D6C0"/>
<path d="M91.4541 64.5536C91.4541 64.5536 107.397 171.571 107.054 169.763C106.797 167.868 94.5397 141.695 91.4541 64.5536Z" fill="#84A064"/>
<path d="M99.254 167.266C99.254 167.266 61.198 83.7529 54.5981 56.4605C54.5981 56.4605 70.4548 129.298 99.254 167.266Z" fill="#84A064"/>
<path d="M111.425 151.683C105.511 141.265 93.8544 138.338 84.5975 142.815C83.9118 143.073 39.3417 161.239 37.9703 162.1C28.2849 168.041 25.9707 181.902 32.7419 192.922C39.1703 203.426 51.5128 207.645 61.0268 202.91C61.7125 202.651 104.997 181.127 106.111 180.439C115.539 174.498 117.168 161.67 111.425 151.683Z" fill="#DDCDBA"/>
<path d="M87.3399 141.695C86.3971 141.954 85.54 142.298 84.5972 142.729C84.1686 142.901 59.4836 152.974 46.0269 158.57C51.4267 157.02 64.3692 158.398 71.3975 173.293L112.368 155.557C112.368 155.471 107.054 138.166 87.3399 141.695Z" fill="#E9DAC8"/>
<path d="M87.3399 141.695C86.3971 141.954 85.54 142.298 84.5972 142.729C84.1686 142.901 59.4836 152.974 46.0269 158.57C49.8839 157.451 57.5122 157.795 64.112 163.478C76.3688 158.226 92.6541 151.252 105.682 145.742C101.74 142.556 95.9111 140.146 87.3399 141.695Z" fill="#F4E5D7"/>
<g opacity="0.3">
<path d="M72.9409 194.042C73.1123 192.234 74.8266 191.459 76.4551 191.201C76.8837 191.114 77.3979 191.114 77.4836 191.717C77.5694 192.406 76.198 194.128 74.1409 194.472C73.8837 194.472 73.5409 194.558 73.2838 194.472C73.1123 194.386 73.0266 194.214 72.9409 194.042Z" fill="#A8846F"/>
<path d="M78.5978 189.307C78.5121 189.307 78.4264 189.22 78.4264 189.134C78.3407 188.704 79.1978 187.843 79.7121 187.757C80.312 187.671 80.4835 187.929 80.5692 188.273C80.6549 188.876 80.0549 189.22 79.4549 189.307C79.1121 189.307 78.8549 189.307 78.5978 189.307Z" fill="#A8846F"/>
<path d="M84.0835 189.393C83.9978 189.306 83.912 189.22 83.912 189.134C83.8263 188.446 85.0263 186.724 86.312 186.465C86.9977 186.379 87.5977 186.81 87.6834 187.24C87.8548 188.187 85.8834 189.306 84.6835 189.565C84.5977 189.565 84.5977 189.565 84.512 189.565C84.4263 189.651 84.1692 189.565 84.0835 189.393Z" fill="#A8846F"/>
<path d="M82.0261 184.83C81.9404 184.141 82.0261 183.538 82.969 183.366C83.3118 183.28 83.6546 183.366 83.7404 183.624C83.8261 184.141 83.0547 184.83 82.6261 184.916C82.369 185.002 82.1975 184.916 82.0261 184.83Z" fill="#A8846F"/>
<path d="M74.9979 185.604C74.8265 184.743 75.8551 183.883 76.6265 183.796C77.1407 183.71 77.8264 183.883 77.9121 184.485C78.0836 185.26 77.2264 185.777 76.455 185.949C75.9408 185.949 75.4265 185.863 74.9979 185.604Z" fill="#A8846F"/>
<path d="M84.597 180.525C84.3399 180.094 85.9684 179.147 86.8255 178.975C88.9683 178.631 85.2827 181.73 84.597 180.525Z" fill="#A8846F"/>
<path d="M89.2259 183.969C89.0545 182.935 89.9973 182.247 90.9401 182.074C91.6258 181.988 92.3115 181.988 92.3972 182.677C92.4829 183.108 91.4544 184.399 90.2544 184.571C90.1687 184.571 90.083 184.571 89.9973 184.571C89.7402 184.571 89.3973 184.313 89.2259 183.969Z" fill="#A8846F"/>
<path d="M95.6539 183.021C95.3968 182.247 96.9396 181.127 97.9682 180.955C98.4824 180.869 98.5681 180.869 98.7396 181.213V181.3C99.0824 182.763 95.9111 183.882 95.6539 183.021Z" fill="#A8846F"/>
<path d="M94.7114 175.789C94.7114 175.703 94.6257 175.531 94.6257 175.445C94.54 174.928 95.14 174.154 96.4257 173.981C97.1971 173.809 97.6256 173.723 97.7113 174.498C97.797 174.842 97.0256 175.703 95.8257 175.876C95.4828 175.876 95.0543 175.876 94.7114 175.789Z" fill="#A8846F"/>
<path d="M101.568 178.286C101.997 177.598 102.683 176.995 103.54 176.909C104.568 176.737 104.74 177.081 104.825 177.511C105.083 178.889 103.54 179.922 102.426 180.094C101.74 180.18 100.968 179.578 100.883 179.233C100.797 178.803 101.226 178.372 101.483 178.372C101.483 178.286 101.568 178.286 101.568 178.286Z" fill="#A8846F"/>
<path d="M97.2827 178.028C97.5399 177.511 98.0541 176.995 98.5684 176.909C98.7398 176.909 98.9969 176.909 99.0827 177.339C99.1684 177.684 98.7398 178.372 98.0541 178.545C97.9684 178.545 97.797 178.545 97.7113 178.545C97.5399 178.458 97.3684 178.286 97.2827 178.028Z" fill="#A8846F"/>
<path d="M104.997 172.604C105.339 172.087 105.854 171.743 106.454 171.571C107.054 171.485 107.825 171.657 107.911 172.26C107.997 172.948 107.311 173.551 106.539 173.723C105.597 173.895 104.911 173.293 104.825 172.776C104.911 172.69 104.911 172.604 104.997 172.604Z" fill="#A8846F"/>
<path d="M107.139 175.617C108.082 174.326 109.368 174.498 109.539 175.445C109.625 176.048 108.768 176.65 108.254 176.736C107.739 176.823 107.139 176.564 107.054 176.048C107.054 175.962 107.054 175.789 107.139 175.617Z" fill="#A8846F"/>
<path d="M110.054 170.365C110.483 169.418 111.597 169.246 112.368 169.074C112.711 168.988 112.797 169.246 112.883 169.504C113.054 170.538 112.283 171.485 111.34 171.657C110.483 171.829 110.226 171.485 110.054 170.796C110.14 170.71 110.14 170.538 110.054 170.365Z" fill="#A8846F"/>
<path d="M90.255 176.478C90.1693 176.478 89.9979 176.392 89.9979 176.22C89.9122 175.962 90.255 175.445 90.855 175.359C91.0264 175.359 91.1979 175.359 91.2836 175.273C91.8836 175.187 92.2264 176.134 90.255 176.478Z" fill="#A8846F"/>
<path d="M108.083 168.127C108.254 168.127 108.425 168.299 108.511 168.644C108.511 168.902 108.511 169.16 107.74 169.246C107.054 169.418 106.54 168.385 108.083 168.127Z" fill="#A8846F"/>
<path d="M99.3401 170.796C99.4258 169.849 100.454 169.332 101.311 169.246C102.083 169.16 102.426 169.418 102.511 170.021C102.683 170.796 101.311 171.399 100.454 171.571C99.8544 171.657 99.3401 171.657 99.2544 171.14C99.3401 170.968 99.3401 170.882 99.3401 170.796Z" fill="#A8846F"/>
<path d="M75.0832 175.789C74.5689 175.875 74.2261 176.306 74.2261 176.564C74.3118 176.995 75.1689 176.909 75.6832 176.823C76.7117 176.65 77.226 175.962 77.1403 175.531C77.0546 175.187 76.4546 175.187 76.1974 175.273C75.7689 175.359 75.426 175.531 75.0832 175.789Z" fill="#A8846F"/>
<path d="M85.3688 172.087C84.9403 172.173 84.5974 172.776 84.6831 173.12C84.7689 173.637 85.3688 173.637 85.8831 173.551C86.9116 173.379 87.5116 172.604 87.5116 172.346C87.4259 171.915 86.8259 171.915 86.3974 172.001C86.0545 172.001 85.7117 172.087 85.3688 172.087Z" fill="#A8846F"/>
<path d="M94.7117 166.233C96.3402 165.975 96.5116 168.557 93.0832 169.16C89.7404 169.677 92.1403 166.663 94.7117 166.233Z" fill="#A8846F"/>
<path d="M105.168 163.219C106.196 163.047 105.682 164.167 104.825 164.253C103.282 164.511 104.396 163.306 105.168 163.219Z" fill="#A8846F"/>
<path d="M113.397 159.862C113.568 160.809 112.625 161.411 111.682 161.584C111.425 161.67 111.082 161.67 110.825 161.584C108.34 160.809 113.14 158.226 113.397 159.862Z" fill="#A8846F"/>
<path d="M106.025 158.226C105.854 157.795 107.054 156.934 107.568 156.848C107.911 156.762 108.168 157.021 108.254 157.451C108.34 158.14 106.368 159.087 106.025 158.226Z" fill="#A8846F"/>
<path d="M97.0254 160.206C96.6825 160.464 95.9111 160.981 95.9111 161.411C95.9968 161.842 96.5968 161.67 97.0254 161.67C97.4539 161.584 98.7396 161.067 98.6539 160.723C98.5682 160.378 98.5682 160.034 97.5397 160.206C97.1111 160.292 96.7682 160.464 96.4254 160.723L97.0254 160.206Z" fill="#A8846F"/>
<path d="M86.0544 164.941C85.7115 165.286 85.1115 165.63 85.1972 166.233C85.283 166.749 85.8829 166.749 86.3972 166.663C88.54 166.319 90.4257 163.994 87.5115 164.425C86.9115 164.511 86.4829 164.683 86.0544 164.941Z" fill="#A8846F"/>
<path d="M79.1974 172.518C79.5403 172.432 80.826 171.829 80.826 171.571C80.4831 169.935 76.5404 172.948 79.1974 172.518Z" fill="#A8846F"/>
<path d="M71.8267 168.816C71.3125 168.988 70.1125 169.504 70.1982 170.021V170.107C70.4553 170.538 71.3982 170.538 71.9124 170.452C72.7696 170.279 74.4838 169.332 74.3981 168.73C74.3124 168.299 73.3695 168.299 72.941 168.385C72.5981 168.557 72.2553 168.73 71.8267 168.816Z" fill="#A8846F"/>
<path d="M76.7119 163.822C76.1119 163.392 78.2547 161.411 79.7118 161.153C80.4832 160.981 81.0832 160.981 81.2546 161.928C81.3403 163.133 77.4833 164.511 76.7119 163.822Z" fill="#A8846F"/>
<path d="M86.5691 160.464C86.312 159.948 87.8548 159.087 88.5405 159.001C89.1405 158.915 89.3119 159.087 89.3119 159.345C89.569 160.464 86.912 160.981 86.5691 160.464Z" fill="#A8846F"/>
<path d="M97.1969 155.126C96.6826 154.093 98.9111 153.146 100.111 152.888C100.711 152.802 101.997 152.802 102.082 153.491C102.254 154.352 101.311 155.557 99.4254 155.901C98.5683 155.987 97.7968 155.815 97.1969 155.126Z" fill="#A8846F"/>
<path d="M104.739 148.325C105.339 148.239 106.111 148.325 106.196 148.928C106.282 149.444 105.168 150.047 104.654 150.133C102.854 150.391 102.597 148.755 104.739 148.325Z" fill="#A8846F"/>
<path d="M93.1685 151.855C95.2256 151.51 94.2827 153.835 92.3971 154.093C89.14 154.696 91.7114 152.113 93.1685 151.855Z" fill="#A8846F"/>
<path d="M97.197 147.636C97.1113 147.12 98.6541 146.517 99.1684 146.431C99.7684 146.345 100.283 146.431 100.368 147.033V147.12C100.368 147.808 99.3398 148.497 98.397 148.669C97.7113 148.755 97.2828 148.583 97.1113 147.894C97.197 147.722 97.197 147.722 97.197 147.636Z" fill="#A8846F"/>
<path d="M98.8254 143.073C97.3683 143.331 96.7683 144.451 97.6255 144.278C97.9683 144.192 98.3111 144.192 98.654 144.106C99.3397 144.02 100.197 143.676 100.025 143.073C100.025 142.815 99.4254 142.901 99.254 142.901C99.1683 142.987 98.9968 142.987 98.8254 143.073Z" fill="#A8846F"/>
<path d="M82.1974 156.246C82.1117 156.16 82.026 155.987 82.026 155.901C81.9403 155.557 82.9688 154.352 84.683 154.093C85.1973 154.007 85.883 153.921 85.9687 154.438C86.0544 155.04 85.1116 156.332 83.8259 156.59C83.2259 156.59 82.7117 156.504 82.1974 156.246Z" fill="#A8846F"/>
<path d="M73.6267 161.239C73.1124 161.584 72.0839 161.756 72.1696 162.445C72.2553 162.789 72.6839 162.703 73.0267 162.703C74.0553 162.531 74.4838 161.842 74.4838 161.584C74.3981 161.239 73.9695 161.153 73.7981 161.153C73.7124 161.153 73.7124 161.153 73.6267 161.239Z" fill="#A8846F"/>
<path d="M68.8266 158.743C66.5124 159.087 65.5695 160.378 65.6552 160.895C65.7409 161.412 66.4266 161.412 66.9409 161.325C67.8837 161.153 70.6265 159.431 70.4551 158.915C70.3694 158.57 69.598 158.57 69.2551 158.57C69.1694 158.57 68.998 158.656 68.8266 158.743Z" fill="#A8846F"/>
<path d="M78.0833 153.491C78.169 153.921 77.6548 154.61 76.4548 154.868C76.2834 154.868 76.112 154.954 75.9405 154.954C73.8835 154.61 77.9119 152.457 78.0833 153.491Z" fill="#A8846F"/>
<path d="M88.7114 148.325C91.0256 147.894 89.5685 150.133 88.0257 150.391C87.6828 150.477 87.34 150.477 87.0829 150.391C85.0258 150.047 87.5971 148.497 88.7114 148.325Z" fill="#A8846F"/>
<path d="M91.7115 143.848C90.683 144.02 88.5402 146.259 91.6258 145.742C93.1686 145.484 94.54 143.417 91.7115 143.848Z" fill="#A8846F"/>
<path d="M79.6257 148.497C80.3114 147.55 81.4257 146.947 82.54 146.775C82.9685 146.689 83.3971 146.689 83.4828 147.378C83.5685 147.808 82.7971 148.841 81.2543 149.1C80.3972 149.272 79.7115 149.358 79.54 148.669C79.6258 148.669 79.6257 148.583 79.6257 148.497Z" fill="#A8846F"/>
<path d="M85.1119 144.967C85.5405 145.312 87.2547 144.106 87.5975 143.59C87.5975 143.59 87.5975 143.59 87.5975 143.503C87.5975 143.245 86.7404 143.245 86.4833 143.245C85.969 143.417 84.7691 144.623 85.1119 144.967Z" fill="#A8846F"/>
<path d="M111.083 152.199C110.483 152.113 110.14 152.802 110.225 153.405C110.311 153.663 110.568 153.749 110.825 153.663C111.511 153.577 111.768 153.146 111.768 152.888C111.683 152.974 111.597 152.285 111.083 152.199Z" fill="#A8846F"/>
<path d="M65.312 155.729C64.5406 155.815 64.9692 154.352 66.8549 154.007C67.3691 153.921 68.0548 154.007 68.1405 154.524C68.2262 155.213 66.8549 155.643 66.0835 155.729C65.8263 155.815 65.5692 155.815 65.312 155.729Z" fill="#A8846F"/>
<path d="M74.9117 149.789C75.2546 149.702 76.3688 149.702 76.3688 150.047C76.4545 150.563 75.5974 151.683 74.3117 151.855C74.0546 151.941 73.7975 151.941 73.4546 151.855C71.7404 151.597 73.3689 150.047 74.9117 149.789Z" fill="#A8846F"/>
<path d="M59.5697 156.332C59.3982 156.332 59.3125 156.332 59.1411 156.332C58.4554 156.418 57.7697 156.935 57.8554 157.451C57.9411 157.795 58.1126 157.795 58.4554 157.795C59.1411 157.709 60.5982 157.279 60.4268 156.504C60.4268 156.332 60.2554 156.16 59.9982 156.246C59.8268 156.246 59.6554 156.332 59.5697 156.332Z" fill="#A8846F"/>
<path d="M70.5408 149.53C66.9409 150.305 64.6267 152.63 67.198 152.199C69.9408 151.769 70.8836 150.391 70.7979 149.702C70.7979 149.616 70.7122 149.53 70.5408 149.53Z" fill="#A8846F"/>
<path d="M78.5972 147.206C79.0258 147.12 79.4543 146.947 79.3686 146.603C79.1115 145.484 75.5973 147.636 78.5972 147.206Z" fill="#A8846F"/>
<path d="M55.1981 156.074C54.7695 156.074 54.341 156.074 53.9124 156.16C53.4838 156.246 52.1982 156.762 52.2839 157.107C52.2839 157.107 52.2839 157.193 52.3696 157.193C52.7981 157.365 53.2267 157.365 53.5696 157.365C54.5124 157.107 56.9123 155.815 55.1981 156.074Z" fill="#A8846F"/>
<path d="M113.054 164.683C112.026 164.855 111.511 165.458 111.597 165.716C111.683 165.974 112.111 166.061 112.454 165.974C113.226 165.888 113.568 165.286 113.483 164.941C113.397 164.683 113.14 164.597 113.054 164.683C113.054 164.597 113.054 164.597 113.054 164.683Z" fill="#A8846F"/>
<path d="M81.5977 176.995C80.6548 177.167 80.2263 177.684 80.312 178.028C80.3977 178.372 81.0834 178.372 81.4262 178.286C82.0262 178.2 82.8833 177.77 82.7976 177.167C82.7119 176.909 82.5405 176.736 82.2834 176.823C81.9405 176.823 81.7691 176.909 81.5977 176.995Z" fill="#A8846F"/>
<path d="M100.197 164.08C99.6829 164.425 98.7401 164.683 98.8258 165.372C98.9115 165.974 99.2543 166.061 99.8543 165.974C100.969 165.802 101.654 164.941 101.569 164.597C101.569 164.425 101.483 164.339 101.397 164.253C101.054 163.994 100.54 164.08 100.197 164.08Z" fill="#A8846F"/>
<path d="M106.282 154.61C106.797 154.524 107.739 153.921 107.654 153.232C107.654 153.146 107.654 153.146 107.568 153.06C106.368 152.113 104.311 154.868 106.282 154.61Z" fill="#A8846F"/>
<path d="M71.7407 179.922C71.8264 179.836 71.9978 179.75 72.0835 179.75C72.7692 179.664 73.2835 179.75 73.3692 180.439C73.4549 181.041 72.8549 181.644 72.3407 181.988H72.255C71.8264 182.074 71.655 181.558 71.5693 181.127C71.4836 180.783 71.5693 180.353 71.7407 179.922Z" fill="#A8846F"/>
<path d="M68.0551 196.022C68.2265 195.936 68.3122 195.85 68.4837 195.85C68.8265 195.764 69.2551 195.936 69.3408 196.28C69.5979 197.658 67.2837 197.658 67.2837 197.658V197.572C67.2837 197.055 67.6265 196.366 68.0551 196.022Z" fill="#A8846F"/>
<path d="M64.7983 166.749C64.8841 166.319 65.3126 166.061 65.7412 165.975C66.2554 165.888 66.4269 166.147 66.5126 166.491C66.5983 166.836 66.084 167.008 65.7412 167.094C65.3983 167.18 65.0555 166.922 64.7983 166.749Z" fill="#A8846F"/>
<path d="M59.827 160.292C60.2555 160.034 60.5984 159.69 61.1126 159.603C61.4555 159.517 61.7983 159.69 61.7983 160.034C61.884 160.551 60.9412 161.067 60.4269 161.153C60.1698 161.239 59.6555 161.239 59.5698 160.895C59.5698 160.809 59.5698 160.637 59.5698 160.551C59.6555 160.378 59.827 160.378 59.827 160.292Z" fill="#A8846F"/>
</g>
<path d="M17.6569 210.056C16.7141 210.228 15.6855 210.142 14.5713 209.797L15.257 207.645C19.3711 208.936 21.2568 204.89 24.3424 197.486C25.971 193.525 27.8566 188.962 30.6851 185.26L32.4851 186.638C29.9137 190.081 28.028 194.472 26.3995 198.347C24.0853 203.943 21.8568 209.367 17.6569 210.056Z" fill="#845B41"/>
<path d="M62.4907 201.991C72.1668 196.01 74.5203 182.199 67.7473 171.143C60.9743 160.087 47.6397 155.973 37.9635 161.954C28.2874 167.935 25.934 181.746 32.7069 192.802C39.4799 203.858 52.8146 207.972 62.4907 201.991Z" fill="#E9DAC8"/>
<path d="M45.6844 176.306C43.5417 175.876 41.9131 172.518 41.9988 170.538C42.0846 166.922 48.7701 164.511 51.8557 164.941C57.3413 165.716 60.5126 171.657 60.5126 173.637C60.4269 175.789 57.2555 177.511 55.3699 177.253C52.37 176.823 54.5985 172.69 51.4271 171.915C47.7415 171.054 49.5415 177.167 45.6844 176.306Z" fill="#A8846F"/>
<path d="M56.9987 180.611C58.1987 178.803 61.4557 179.836 62.9985 181.127C65.827 183.452 65.0556 190.34 63.3414 192.922C60.3415 197.399 54.0845 197.313 52.5417 196.022C50.8275 194.644 50.5703 190.77 51.6846 189.22C53.656 186.551 55.8845 191.287 57.8558 188.876C60.0843 186.035 54.6845 184.055 56.9987 180.611Z" fill="#A8846F"/>
<path d="M47.2272 188.962C48.2557 191.115 47.4843 193.353 45.8558 194.128C42.8559 195.505 37.7989 191.803 36.2561 188.704C33.599 183.28 35.3132 177.339 36.9418 176.564C38.7417 175.789 42.0845 176.306 43.0273 178.114C44.913 181.988 39.9417 181.558 41.2274 184.743C42.8559 188.532 44.9987 184.313 47.2272 188.962Z" fill="#A8846F"/>
<path d="M49.1986 171.054C49.1986 171.054 49.2843 172.776 48.77 173.895L53.4842 174.756C53.4842 174.756 53.0556 172.948 53.3127 171.657L52.2842 172.001L52.1128 170.71L51.2557 171.743L50.7414 170.365L50.1414 171.657C50.0557 171.657 49.7986 171.312 49.1986 171.054Z" fill="#E9DAC8"/>
<path d="M57.4265 185.088C57.4265 185.088 58.6265 186.637 59.655 186.982C59.655 186.982 59.1408 187.498 58.6265 187.412L59.055 187.843L58.5408 188.187L58.8836 188.79L57.9408 188.962L58.5408 189.995L57.2551 189.479C57.2551 189.479 57.3408 190.081 57.2551 190.77C57.2551 190.77 55.8837 189.392 55.1123 189.048L57.4265 185.088Z" fill="#E9DAC8"/>
<g opacity="0.5">
<path d="M33.4278 169.677C33.3421 168.644 33.7707 167.696 34.5421 167.18C35.142 166.836 35.742 166.922 36.1706 167.61C36.342 167.955 35.9992 169.332 35.142 169.849C34.2849 170.452 33.5135 170.107 33.4278 169.677Z" fill="#A8846F"/>
<path d="M37.7992 167.696C37.7135 167.266 37.8849 166.922 38.2277 166.749C38.5706 166.491 38.8277 166.577 39.0849 166.835C39.0849 166.835 39.0849 166.835 39.1706 166.922C39.342 167.266 38.9134 167.696 38.5706 167.869C38.0563 168.127 37.7992 167.955 37.7992 167.696Z" fill="#A8846F"/>
<path d="M39.085 163.392C39.1707 162.875 39.5992 162.445 40.0278 162.1C41.142 161.411 43.542 161.928 41.3135 163.306C40.6278 163.736 39.2564 164.253 39.085 163.392Z" fill="#A8846F"/>
<path d="M45.7701 163.736C45.6844 163.736 45.5987 163.65 45.5987 163.564C45.4273 163.306 45.6844 162.961 45.7701 162.875H45.8558C46.113 162.789 46.3701 162.703 46.5415 163.047C46.5415 163.047 46.5415 163.047 46.5415 163.133C46.5415 163.392 46.4558 163.564 46.1987 163.736C46.113 163.822 46.0272 163.822 45.8558 163.822L45.7701 163.736Z" fill="#A8846F"/>
<path d="M48.9413 160.034C49.7127 159.517 51.5127 159.603 52.027 160.464C52.2841 160.809 52.027 161.153 51.6841 161.325C49.8842 162.445 47.9128 160.723 48.9413 160.034Z" fill="#A8846F"/>
<path d="M53.9132 164.08C53.8275 163.908 53.8275 163.736 53.9989 163.65C54.3418 163.478 55.0275 163.736 55.2846 164.166C55.3703 164.339 55.3703 164.597 55.1989 164.683C54.9418 164.855 54.0847 164.339 53.9132 164.08Z" fill="#A8846F"/>
<path d="M59.5699 165.2C58.9699 165.63 56.8271 164.597 56.8271 163.994C56.8271 163.392 60.427 163.908 59.5699 165.2Z" fill="#A8846F"/>
<path d="M60.684 169.935C60.5983 169.849 60.4269 169.763 60.3412 169.591C60.2554 169.418 60.1697 169.074 60.3412 168.988C60.5983 168.816 61.1126 169.332 61.284 169.591C61.884 170.451 60.9411 170.365 60.684 169.935Z" fill="#A8846F"/>
<path d="M62.0553 167.094C61.2839 165.802 63.1695 165.802 64.2838 167.61C65.2266 169.16 63.7695 169.849 62.0553 167.094Z" fill="#A8846F"/>
<path d="M64.7127 171.485C65.3984 171.485 66.5984 173.034 65.827 173.465C64.8841 173.981 63.5127 171.829 64.7127 171.485Z" fill="#A8846F"/>
<path d="M61.9698 175.703C61.6269 175.101 61.7126 174.498 61.9698 174.412C61.9698 174.412 61.9698 174.412 62.0555 174.412C63.084 174.498 63.8554 176.048 63.084 176.478C62.5698 176.736 62.3126 176.22 61.9698 175.703Z" fill="#A8846F"/>
<path d="M67.6268 175.445C67.6268 175.359 67.6268 175.359 67.6268 175.445C68.0554 175.187 68.4839 175.617 68.8268 176.134C69.5125 177.339 69.4267 178.372 68.8268 178.717C68.7411 178.717 68.6553 178.803 68.5696 178.803C67.7982 178.803 66.7697 175.962 67.6268 175.445Z" fill="#A8846F"/>
<path d="M68.9981 182.849C68.6552 182.247 68.5695 181.3 69.1695 180.955C69.5123 180.783 69.8552 181.041 70.1123 181.386C70.3695 181.816 70.3695 182.849 69.8552 183.108C69.7695 183.194 69.6838 183.194 69.5981 183.194C69.3409 183.28 69.1695 183.108 68.9981 182.849Z" fill="#A8846F"/>
<path d="M65.0556 181.644C64.3699 180.439 64.5413 179.492 64.9698 179.233C65.6555 178.803 66.5127 179.578 66.9412 180.352C67.5412 181.3 67.1983 182.849 66.6841 183.108C66.1698 183.452 65.7412 182.763 65.0556 181.644Z" fill="#A8846F"/>
<path d="M68.3983 186.896C69.1697 188.101 68.1411 189.134 67.7126 188.446C67.3697 187.757 67.884 185.949 68.3983 186.896Z" fill="#A8846F"/>
<path d="M68.7409 191.631C69.3409 192.578 68.4838 194.042 67.7124 194.472C65.2267 196.022 67.4552 189.565 68.7409 191.631Z" fill="#A8846F"/>
<path d="M61.8842 196.797C61.7127 196.539 62.0556 195.333 62.9127 194.817C63.2556 194.558 63.7698 194.472 64.1984 194.731C65.0555 195.075 62.6556 198.002 61.8842 196.797Z" fill="#A8846F"/>
<path d="M58.7982 201.102C58.3696 200.413 59.6553 199.466 60.2553 199.121C61.4553 198.433 62.7409 198.691 62.9124 198.949C62.9981 199.035 62.9981 199.294 62.9124 199.38C62.3124 201.102 59.3982 201.963 58.7982 201.102Z" fill="#A8846F"/>
<path d="M57.3415 199.38C56.9129 199.121 56.6558 199.638 56.3129 199.035C56.0558 198.691 56.3986 198.26 56.7415 198.002C57.8557 197.313 58.6271 198.691 57.77 199.207C57.6843 199.293 57.5129 199.38 57.3415 199.38Z" fill="#A8846F"/>
<path d="M54.9411 202.91C54.684 203.082 54.1697 202.91 53.9983 202.737C53.7412 202.393 53.9126 201.876 54.2555 201.704C54.684 201.446 55.1983 201.446 55.6268 201.704L55.7126 201.79C55.7983 201.876 55.7983 202.049 55.7126 202.135C55.5411 202.479 55.284 202.737 54.9411 202.91Z" fill="#A8846F"/>
<path d="M52.9702 199.466L52.8845 199.552C52.6274 199.724 51.7703 199.466 51.6846 199.207C51.6846 199.121 51.6846 199.121 51.6846 199.035C51.7703 198.777 51.9417 198.519 52.1988 198.346C52.5417 198.088 53.1417 198.002 53.5702 198.088C53.5702 198.088 53.5702 198.088 53.6559 198.174C53.8274 198.433 53.3988 199.207 53.1417 199.38C53.056 199.38 52.9702 199.466 52.9702 199.466Z" fill="#A8846F"/>
<path d="M50.7418 202.823C50.656 202.823 50.656 202.91 50.5703 202.91C49.1132 203.771 46.9704 203.168 46.5419 202.479C46.4562 202.393 46.3705 202.221 46.3705 202.135C46.199 201.876 46.5419 201.532 46.7133 201.36C47.7418 200.671 50.656 201.446 51.0846 202.135V202.221C51.0846 202.479 50.9132 202.651 50.7418 202.737C50.8275 202.823 50.7418 202.823 50.7418 202.823Z" fill="#A8846F"/>
<path d="M47.8272 198.949C47.7414 198.777 47.6557 198.691 47.9986 198.519C48.5986 198.174 49.37 198.432 49.6271 198.777C50.0557 199.466 48.3414 199.81 47.8272 198.949Z" fill="#A8846F"/>
<path d="M42.2563 197.916C41.9991 197.572 41.9134 197.227 42.342 197.055C42.342 197.055 42.4277 197.055 42.4277 196.969C43.6277 196.711 45.1705 197.486 45.5133 198.088C46.4561 199.724 43.1991 199.638 42.2563 197.916Z" fill="#A8846F"/>
<path d="M41.3135 200.327C38.3136 200.585 39.5993 196.538 41.485 199.552C41.7421 199.982 41.8278 200.155 41.3135 200.327Z" fill="#A8846F"/>
<path d="M36.5132 193.095C36.9417 192.836 38.5702 193.439 39.2559 194.472C39.5988 194.989 39.5131 195.247 39.3417 195.505C38.4845 196.022 35.7418 193.611 36.5132 193.095Z" fill="#A8846F"/>
<path d="M33.5991 193.353C33.4276 193.008 33.1705 192.492 33.4276 192.32C33.6848 192.148 34.4562 192.492 34.9704 193.267C36.1704 195.247 34.3705 194.558 33.5991 193.353Z" fill="#A8846F"/>
<path d="M34.885 191.114C34.4565 190.598 33.9422 189.909 33.5136 189.306C32.9994 188.532 32.7422 187.757 33.3422 187.412C33.9422 187.068 34.5422 187.757 34.9707 188.445C35.8278 189.909 35.5707 190.77 34.9707 191.114C34.9707 191.114 34.9707 191.114 34.885 191.114Z" fill="#A8846F"/>
<path d="M31.6282 186.896C31.2854 186.723 31.0282 186.465 30.7711 186.121C30.4282 185.604 30.2568 184.743 30.6854 184.399C31.1139 184.141 31.7996 184.399 32.2282 185.088C32.571 185.69 32.571 186.465 32.0568 186.81C31.9711 186.896 31.7996 186.896 31.6282 186.896Z" fill="#A8846F"/>
<path d="M33.942 180.869C34.1134 181.041 34.1134 181.902 33.942 182.333C32.7421 184.571 32.2278 178.028 33.942 180.869Z" fill="#A8846F"/>
<path d="M30.5134 180.094C30.4277 180.008 30.3419 179.922 30.2562 179.75C29.5705 178.631 29.9134 176.736 30.2562 176.478H30.342C30.8562 176.478 31.3705 176.823 31.7133 177.253C32.3133 178.2 31.8848 179.664 31.2848 180.008C31.1134 180.18 30.8562 180.18 30.5134 180.094Z" fill="#A8846F"/>
<path d="M33.5131 176.392C33.4273 175.875 33.5988 175.273 33.9416 175.015C34.2845 174.756 34.7987 174.842 35.1416 175.359C35.4844 175.875 35.3987 176.736 34.7987 177.081C34.5416 177.253 34.113 177.339 33.8559 177.167C33.6845 176.823 33.5131 176.564 33.5131 176.392Z" fill="#A8846F"/>
<path d="M31.2846 173.637C31.0275 173.034 31.0275 172.087 31.5418 171.829C31.8846 171.571 32.2275 171.743 32.4846 172.087C32.8274 172.69 32.5703 173.293 32.056 173.637C31.8846 173.723 31.7989 173.809 31.6275 173.809C31.5418 173.809 31.456 173.723 31.2846 173.637Z" fill="#A8846F"/>
<path d="M36.1706 173.637C35.9135 172.948 36.342 172.432 36.8563 172.087C37.542 171.657 37.7134 171.743 38.0563 172.087L38.142 172.173C38.6563 173.034 37.8848 174.756 36.2563 173.895C36.342 173.809 36.2563 173.723 36.1706 173.637Z" fill="#A8846F"/>
<path d="M40.4558 172.173C40.1987 172.259 39.7701 171.915 39.5987 171.657C38.7416 170.193 41.3986 170.71 40.7987 171.829C40.713 172.001 40.5415 172.173 40.4558 172.173Z" fill="#A8846F"/>
<path d="M42.5134 175.875C42.1705 176.048 41.742 175.962 41.4848 175.531C41.3134 175.273 41.2277 175.015 41.3991 174.928C42.1705 174.498 43.1133 175.789 42.5134 175.875Z" fill="#A8846F"/>
<path d="M48.6847 178.889L48.599 178.803C48.3419 178.372 49.199 175.273 50.3989 174.498C50.9132 174.154 50.9989 174.24 51.1703 174.498C51.6846 175.359 51.2561 177.856 49.8847 178.803C49.7132 178.889 49.5418 178.975 49.2847 179.061C49.1133 179.147 48.8561 178.975 48.6847 178.889Z" fill="#A8846F"/>
<path d="M52.1987 177.081C52.3702 176.995 52.713 177.339 52.8844 177.597C53.1416 178.114 53.1416 178.717 52.4559 179.147C51.6845 179.664 51.7702 177.339 52.1987 177.081Z" fill="#A8846F"/>
<path d="M56.0558 184.657C55.4558 183.71 53.7415 182.16 53.0558 182.849C52.7987 183.194 52.7987 183.538 53.1416 184.055C54.4272 186.293 57.4272 186.982 56.0558 184.657Z" fill="#A8846F"/>
<path d="M53.5699 186.121C52.9699 185.174 50.0557 184.399 51.1699 186.121C51.7699 187.154 54.5127 187.671 53.5699 186.121Z" fill="#A8846F"/>
<path d="M46.7126 185.174L46.6269 185.088C46.2841 184.571 47.1412 183.71 47.5698 183.366C49.884 181.988 48.4269 186.379 46.7126 185.174Z" fill="#A8846F"/>
<path d="M47.3985 182.677C47.1413 182.849 46.9699 183.022 46.7128 183.194C46.1128 183.624 43.6271 184.485 43.1986 183.796C42.9414 183.366 43.7986 182.419 44.2271 182.161C45.0842 181.644 46.2842 181.558 47.3985 182.074L47.4842 182.161C47.5699 182.247 47.5699 182.419 47.5699 182.419C47.4842 182.505 47.3985 182.591 47.3985 182.677Z" fill="#A8846F"/>
<path d="M45.2561 179.75C45.0846 179.578 45.2561 179.233 45.4275 179.147C45.856 178.889 46.7132 178.975 47.1417 179.664C47.1417 179.75 47.2274 179.75 47.2274 179.836C47.3131 180.697 45.6846 180.439 45.2561 179.75Z" fill="#A8846F"/>
<path d="M50.2272 180.955C49.97 181.127 49.97 181.558 50.1414 181.902C50.57 182.591 51.4271 183.021 52.1128 182.591C52.6271 182.247 52.7128 181.73 52.4557 181.3C52.1985 180.869 51.77 180.783 51.5985 180.869C50.6557 181.386 51.0843 180.439 50.2272 180.955Z" fill="#A8846F"/>
<path d="M55.4556 178.372C55.8842 178.114 56.7413 178.114 56.9984 178.544C57.1699 178.889 57.0841 179.491 56.4842 179.836C54.5128 181.127 54.5128 178.975 55.4556 178.372Z" fill="#A8846F"/>
<path d="M59.5699 176.995C60.2556 176.564 60.8556 176.823 61.1127 177.167C61.2841 177.511 61.027 177.856 60.7699 178.028C59.9985 178.458 58.3699 177.684 59.5699 176.995Z" fill="#A8846F"/>
<path d="M49.9701 190.081C50.9987 190.426 51.1701 189.048 50.7415 188.359C50.7415 188.359 50.7415 188.273 50.6558 188.273C50.313 187.585 49.1987 189.048 49.9701 190.081Z" fill="#A8846F"/>
<path d="M48.9419 192.234C48.599 192.75 48.2562 193.525 48.599 194.128C48.7705 194.386 49.199 194.73 49.4562 194.558C49.8847 194.3 50.1419 193.267 49.6276 192.492C49.4562 192.148 49.2847 191.975 48.9419 192.234Z" fill="#A8846F"/>
<path d="M47.2275 194.731C47.1417 194.817 47.056 194.817 46.9703 194.817C46.7132 194.989 46.1132 195.936 46.3703 196.366C46.5418 196.625 46.8846 196.797 47.2275 196.539C47.656 196.28 48.256 195.333 47.9132 194.731C47.7417 194.472 47.5703 194.386 47.3132 194.558C47.2275 194.644 47.2275 194.644 47.2275 194.731Z" fill="#A8846F"/>
<path d="M51.2556 196.883C51.427 196.797 51.5128 195.85 51.2556 195.505C50.3128 193.87 49.9699 197.658 51.2556 196.883Z" fill="#A8846F"/>
</g>
<path d="M68.2267 170.71C61.4555 159.69 48.1701 155.557 38.4847 161.498C37.5419 162.1 36.6848 162.703 35.8276 163.478C36.5133 162.961 37.199 162.445 37.9704 161.928C47.6559 155.987 60.9412 160.034 67.7124 171.14C73.798 181.127 72.5123 193.267 65.0554 199.982C72.9408 193.439 74.3979 180.955 68.2267 170.71Z" fill="#F4E5D7"/>
<path opacity="0.3" d="M24.3424 197.486C21.2567 204.804 19.3711 208.936 15.2569 207.645L14.9141 208.592C15.8569 208.85 16.6283 208.85 17.3997 208.764C21.5996 208.075 23.8281 202.737 26.1423 197.055C27.5994 193.439 29.3136 189.393 31.6279 186.121L30.5993 185.346C27.8565 188.962 25.9709 193.439 24.3424 197.486Z" fill="#845B41"/>
<path d="M21.2567 210.658C19.1996 211.003 16.7997 210.744 13.9712 209.539L14.8283 207.473C23.9138 211.261 27.5994 204.459 31.7992 194.472C34.542 188.015 37.1134 181.902 42.5132 183.796L41.7418 185.949C38.4848 184.829 36.5991 188.79 33.8563 195.333C31.1136 201.79 27.8565 209.539 21.2567 210.658Z" fill="#845B41"/>
<path opacity="0.3" d="M31.7994 194.472C27.5995 204.459 23.9139 211.261 14.8285 207.473L14.3999 208.506C16.9713 209.453 19.1141 209.711 20.9997 209.367C27.5995 208.248 30.8566 200.499 33.5993 194.042C36.3421 187.499 38.2278 183.452 41.4848 184.657L41.8277 183.71C36.9421 182.333 34.4565 188.187 31.7994 194.472Z" fill="#845B41"/>
<path d="M41.5707 187.326C41.5707 187.326 42.9421 186.379 44.5706 186.638L41.9136 182.333C41.9136 182.333 41.1422 183.108 40.1136 183.71C40.1136 183.71 40.6279 183.796 40.7993 183.796C40.885 183.796 39.6851 184.916 39.6851 184.916C39.6851 184.916 40.7136 184.743 40.885 184.571C41.0564 184.399 40.3708 185.604 40.3708 185.604L41.3993 185.691L41.2279 186.379L41.9136 186.465C41.9136 186.293 41.7421 186.551 41.5707 187.326Z" fill="#E9DAC8"/>
<path d="M2.65707 201.188C2.39993 201.446 2.22851 201.618 2.05708 201.877L3.34276 202.737L1.62852 202.393C1.4571 202.565 1.37139 202.737 1.28568 202.91L2.22851 203.34L1.11425 203.168C0.94283 203.426 0.857118 203.685 0.685694 203.943L3.51418 204.89L0.428559 204.718C0.342847 204.976 0.342847 205.148 0.257135 205.406L1.88566 205.837H0.257135C0 206.267 0 206.612 0 207.042L4.28559 207.214L0 207.903C0 208.248 0 208.506 0.0857118 208.85L10.3711 207.903L10.714 205.579L2.65707 201.188Z" fill="#845B41"/>
<path opacity="0.3" d="M2.65707 201.188C2.39993 201.446 2.39993 201.446 2.22851 201.618L4.54273 203.082L1.62852 202.393C1.4571 202.565 1.4571 202.565 1.37139 202.737L3.17134 203.512L1.11425 203.168C0.94283 203.426 0.94283 203.426 0.857118 203.685L4.45701 204.976L0.428559 204.804C0.342847 205.062 0.342847 204.976 0.342847 205.234L2.9142 205.923H0.257135C0 206.267 0 206.181 0 206.612L5.74269 207.214L0 207.989C0 208.334 0 208.248 0 208.592L10.4568 207.301L10.714 205.665L2.65707 201.188Z" fill="#845B41"/>
<path d="M9.68564 207.214L6.51431 207.042L8.74281 206.698L5.82861 205.923L9.08566 206.181L7.02858 205.148L9.3428 205.751L8.48568 205.062L10.1999 205.751L9.68564 207.214Z" fill="#845B41"/>
<path d="M12.3425 210.4C10.8854 210.658 9.85683 209.109 9.59969 207.731C9.34256 205.923 10.2854 204.632 11.4854 204.373C12.3425 204.201 13.0282 204.89 13.1139 205.492C13.1996 206.267 12.6853 205.665 13.7139 205.492C14.4853 205.32 14.9138 205.923 15.0852 206.698C15.2567 207.903 14.6567 209.367 13.4567 209.883C13.1996 209.969 13.0282 209.625 13.0282 209.625C13.0282 209.625 13.371 210.228 12.3425 210.4Z" fill="#845B41"/>
<path opacity="0.3" d="M9.94275 207.301C9.77132 205.923 10.5427 204.89 11.1427 204.804C11.5713 204.718 11.8284 204.976 11.9141 205.406C12.3427 207.559 10.3713 210.83 9.94275 207.301Z" fill="#845B41"/>
<path opacity="0.3" d="M13.5428 208.334C13.1999 207.903 13.5428 205.837 14.0571 205.751H14.1428C14.3999 205.751 14.4856 206.095 14.4856 206.267C14.657 207.301 13.8856 208.85 13.5428 208.334Z" fill="#845B41"/>
<path d="M171.338 184.485C171.338 193.267 154.539 206.87 131.482 206.87C108.426 206.87 87.769 193.267 87.769 184.485C87.769 175.703 106.454 163.908 129.511 163.908C152.653 163.908 171.338 175.703 171.338 184.485Z" fill="#332722"/>
<path opacity="0.6" d="M102.683 169.59C106.368 173.12 114.682 177.597 128.225 177.597C140.139 177.597 150.081 173.206 155.824 169.332C148.624 166.147 139.453 163.908 129.51 163.908C119.311 163.908 109.968 166.233 102.683 169.59Z" fill="#231A17"/>
<path d="M150.167 167.094C157.281 171.571 161.395 177.167 161.395 180.18C161.395 184.399 149.653 198.002 128.225 198.002C106.883 198.002 89.0547 190.081 89.0547 180.18C88.1976 181.644 87.769 183.021 87.769 184.399C87.769 193.181 108.426 206.784 131.482 206.784C154.539 206.784 171.338 193.181 171.338 184.399C171.338 178.544 162.767 171.226 150.167 167.094Z" fill="#231A17"/>
<path opacity="0.6" d="M140.824 185.346C140.139 188.962 119.911 194.386 106.968 191.889C98.9114 190.34 92.5687 183.71 93.2544 180.094C93.9401 176.478 103.454 176.048 111.511 177.597C119.568 179.319 141.51 181.816 140.824 185.346Z" fill="#332722"/>
<path opacity="0.4" d="M155.652 183.624C152.91 185.346 150.167 185.862 149.481 184.829C148.881 183.796 151.71 178.114 154.452 176.478C157.195 174.756 163.538 178.803 155.652 183.624Z" fill="#332722"/>
<path opacity="0.6" d="M170.481 185.346C170.481 185.346 164.138 191.975 153.853 197.658C146.396 201.79 136.882 205.665 122.739 204.545C122.739 204.545 139.71 208.247 156.167 199.81C161.995 196.883 167.138 192.32 170.481 185.346Z" fill="#332722"/>
<path d="M161.395 145.57C162.167 152.199 149.396 166.921 131.911 169.59C106.626 173.465 98.5687 159.517 97.7973 152.974C97.0258 146.345 109.625 135.755 127.196 133.688C144.767 131.622 160.624 139.026 161.395 145.57Z" fill="#332722"/>
<path d="M161.395 145.57C160.795 140.232 150.424 134.463 137.224 133.516C147.338 135.583 154.281 139.113 154.281 142.556C154.281 150.047 141.596 159.776 121.796 159.776C108.682 159.776 101.311 155.901 97.8827 151.08C97.7113 151.769 97.7113 152.371 97.797 152.974C98.5684 159.603 106.625 173.465 131.91 169.59C149.396 166.921 162.167 152.199 161.395 145.57Z" fill="#231A17"/>
<path opacity="0.6" d="M127.796 138.682C122.739 138.682 118.711 137.821 115.368 136.53C113.654 137.218 112.025 137.907 110.482 138.682C114.511 141.007 121.368 143.503 129.253 143.503C138.51 143.503 146.396 139.285 149.91 136.185C147.596 135.324 144.939 134.636 142.196 134.119C138.596 136.702 133.882 138.682 127.796 138.682Z" fill="#231A17"/>
<path opacity="0.6" d="M136.539 150.219C136.539 153.146 126.082 156.676 116.996 156.676C107.911 156.676 101.483 149.702 103.882 148.153C112.711 142.298 136.539 147.636 136.539 150.219Z" fill="#332722"/>
<path opacity="0.4" d="M149.396 148.583C147.253 150.219 141.51 150.391 140.825 149.272C140.139 148.153 145.282 144.967 147.596 143.503C151.11 141.351 157.024 142.728 149.396 148.583Z" fill="#332722"/>
<path d="M110.482 166.749C110.482 166.749 122.396 171.743 138.853 166.491C155.31 161.239 159.51 147.894 159.51 147.894C157.795 150.563 138.767 172.69 110.482 166.749Z" fill="#332722"/>
<path d="M149.652 121.893C149.824 126.715 142.795 138.682 127.796 138.682C110.482 138.682 104.054 128.695 103.797 123.96C103.625 119.138 109.539 111.218 122.225 110.701C134.91 110.098 149.481 117.158 149.652 121.893Z" fill="#45312A"/>
<path d="M140.481 114.231C143.738 116.469 145.71 118.708 145.71 120.258C145.71 126.026 134.653 130.847 121.025 130.847C110.311 130.847 104.911 126.026 104.911 120.258C104.911 120.171 104.911 120.085 104.911 119.999C104.225 121.377 103.882 122.84 103.882 123.96C104.054 128.781 110.568 138.682 127.882 138.682C142.881 138.682 149.91 126.715 149.738 121.893C149.567 119.483 145.795 116.469 140.481 114.231Z" fill="#35241F"/>
<path opacity="0.6" d="M126.768 125.595C126.511 128.178 117.939 127.92 113.825 126.198C103.625 122.066 110.482 112.165 119.911 116.383C123.939 118.191 126.853 124.821 126.768 125.595Z" fill="#45312A"/>
<path opacity="0.4" d="M142.881 121.291C143.224 122.238 141.767 123.701 139.624 124.476C137.482 125.251 133.11 125.079 132.768 124.132C132.425 123.185 136.282 121.721 138.424 120.946C140.482 120.171 142.539 120.344 142.881 121.291Z" fill="#45312A"/>
<path d="M116.911 136.099C116.911 136.099 124.282 138.166 131.054 137.305C137.825 136.444 145.539 131.364 148.625 124.304C149.996 121.205 138.168 139.199 116.911 136.099Z" fill="#45312A"/>
</svg>
