<svg width="481" height="461" viewBox="0 0 481 461" fill="none" xmlns="http://www.w3.org/2000/svg">
<path d="M477.606 154.033L477.604 154.044C473.042 179.254 455.602 203.052 433.802 227.673C426.745 235.643 419.229 243.701 411.574 251.908C395.698 268.928 379.228 286.587 365.026 305.421L365.021 305.427L365.017 305.433C350.404 325.214 338.114 346.307 326.492 366.254C321.562 374.716 316.752 382.972 311.935 390.835C295.694 417.346 279.389 439.373 258.051 450.653C236.764 461.417 210.2 461.355 183.993 453.666C157.798 445.981 132.131 430.72 112.769 411.351C93.9156 392.001 81.3067 368.257 71.1463 343.113C65.0379 327.996 59.8589 312.504 54.7325 297.169C51.2993 286.898 47.8897 276.699 44.2404 266.73C40.0264 255.219 35.5479 244.028 31.1468 233.031C30.8198 232.213 30.4932 231.397 30.1671 230.582C25.45 218.789 20.8516 207.208 16.7729 195.634C8.61636 172.487 2.56535 149.437 1.84081 124.974C1.1157 100.491 5.72465 74.3195 15.2172 52.484C24.7194 30.6264 39.0202 13.3146 57.5495 6.18043C76.6382 -0.980503 100.292 1.96287 127.067 7.34351C133.099 8.55556 139.283 9.88994 145.595 11.2518C167.154 15.9034 190.2 20.876 213.731 22.3934L213.744 22.3941C236.75 23.6815 260.206 21.6523 283.252 19.6584C290.917 18.9953 298.536 18.3361 306.079 17.8041C336.399 15.6656 365.559 15.5681 392.11 25.2263C418.656 34.8829 442.469 54.3421 458.427 77.8089C474.389 101.282 482.4 128.621 477.606 154.033Z" stroke="#543434" stroke-width="3"/>
</svg>
