<svg width="50" height="18" viewBox="0 0 50 18" fill="none" xmlns="http://www.w3.org/2000/svg">
<path d="M48.6771 10.0195H1.02526C0.458433 10.0195 0.000488281 9.56159 0.000488281 8.99477C0.000488281 8.42794 0.458433 7.96999 1.02526 7.96999H46.2016L39.9826 1.75092C39.5823 1.35062 39.5823 0.700527 39.9826 0.300226C40.3829 -0.100075 41.033 -0.100075 41.4333 0.300226L49.404 8.27102C49.6987 8.56564 49.7851 9.00437 49.625 9.38866C49.4649 9.76975 49.0902 10.0195 48.6771 10.0195Z" fill="black"/>
<path d="M40.6968 17.9999C40.4342 17.9999 40.1716 17.9006 39.9731 17.6988C39.5728 17.2985 39.5728 16.6485 39.9731 16.2482L47.9535 8.26776C48.3538 7.86745 49.0039 7.86745 49.4042 8.26776C49.8045 8.66806 49.8045 9.31815 49.4042 9.71845L41.4238 17.6988C41.222 17.9006 40.9594 17.9999 40.6968 17.9999Z" fill="black"/>
</svg>
