<svg width="30" height="27" viewBox="0 0 30 27" fill="none" xmlns="http://www.w3.org/2000/svg">
<path d="M9.66564 17.3687H9.66705C9.66822 17.3687 9.66939 17.3684 9.6705 17.3684H25.6055C25.7965 17.3684 25.9823 17.3069 26.1347 17.1933C26.2872 17.0796 26.3981 16.92 26.4505 16.7386L29.9662 4.58069C30.0035 4.45147 30.01 4.31545 29.9852 4.18332C29.9603 4.0512 29.9048 3.92658 29.8229 3.81926C29.741 3.71193 29.6349 3.62486 29.5132 3.5649C29.3914 3.50493 29.2572 3.47371 29.1211 3.47368H7.6387L7.01046 0.680032C6.96704 0.487143 6.85836 0.314647 6.70236 0.191014C6.54635 0.0673811 6.35234 2.66876e-06 6.15235 0L0.878908 0C0.393458 0 0 0.388763 0 0.868421C0 1.34808 0.393458 1.73684 0.878908 1.73684H5.44741C5.55862 2.23184 8.45398 15.1058 8.62062 15.8464C7.68657 16.2476 7.03126 17.1679 7.03126 18.2368C7.03126 19.6733 8.21415 20.8421 9.66798 20.8421H25.6055C26.091 20.8421 26.4844 20.4533 26.4844 19.9737C26.4844 19.494 26.091 19.1053 25.6055 19.1053H9.66798C9.18341 19.1053 8.78908 18.7156 8.78908 18.2368C8.78908 17.7587 9.18207 17.3698 9.66564 17.3687ZM27.9559 5.21053L24.9425 15.6316H10.373L8.02923 5.21053H27.9559ZM8.78908 23.4474C8.78908 24.8839 9.97197 26.0526 11.4258 26.0526C12.8796 26.0526 14.0625 24.8839 14.0625 23.4474C14.0625 22.0109 12.8796 20.8421 11.4258 20.8421C9.97197 20.8421 8.78908 22.0109 8.78908 23.4474ZM11.4258 22.5789C11.9104 22.5789 12.3047 22.9686 12.3047 23.4474C12.3047 23.9262 11.9104 24.3158 11.4258 24.3158C10.9412 24.3158 10.5469 23.9262 10.5469 23.4474C10.5469 22.9686 10.9412 22.5789 11.4258 22.5789ZM21.211 23.4474C21.211 24.8839 22.3939 26.0526 23.8477 26.0526C25.3015 26.0526 26.4844 24.8839 26.4844 23.4474C26.4844 22.0109 25.3015 20.8421 23.8477 20.8421C22.3939 20.8421 21.211 22.0109 21.211 23.4474ZM23.8477 22.5789C24.3323 22.5789 24.7266 22.9686 24.7266 23.4474C24.7266 23.9262 24.3323 24.3158 23.8477 24.3158C23.3631 24.3158 22.9688 23.9262 22.9688 23.4474C22.9688 22.9686 23.3631 22.5789 23.8477 22.5789Z" fill="#543434"/>
</svg>
