<svg width="19" height="15" viewBox="0 0 19 15" fill="none" xmlns="http://www.w3.org/2000/svg">
<path d="M0.937531 5.00001H14.9242L13.3996 6.52457C13.2237 6.70039 13.125 6.93886 13.125 7.1875C13.125 7.43615 13.2237 7.67461 13.3996 7.85043C13.5754 8.02625 13.8138 8.12502 14.0625 8.12502C14.3111 8.12502 14.5496 8.02625 14.7254 7.85043L17.8504 4.72544C17.9375 4.63838 18.0065 4.53503 18.0536 4.42129C18.1008 4.30754 18.125 4.18563 18.125 4.06251C18.125 3.93939 18.1008 3.81748 18.0536 3.70374C18.0065 3.58999 17.9375 3.48664 17.8504 3.39958L14.7254 0.274594C14.5496 0.0987742 14.3111 -1.85256e-09 14.0625 0C13.8138 1.85256e-09 13.5754 0.0987742 13.3996 0.274594C13.2237 0.450413 13.125 0.688875 13.125 0.937521C13.125 1.18617 13.2237 1.42463 13.3996 1.60045L14.9242 3.12501H0.937531C0.688891 3.12501 0.450435 3.22379 0.274621 3.3996C0.0988059 3.57542 3.41236e-05 3.81387 3.41236e-05 4.06251C3.41236e-05 4.31115 0.0988059 4.54961 0.274621 4.72542C0.450435 4.90124 0.688891 5.00001 0.937531 5.00001ZM17.1875 9.99999H3.20084L4.72545 8.47543C4.90127 8.29961 5.00004 8.06115 5.00004 7.8125C5.00004 7.56385 4.90127 7.32539 4.72545 7.14957C4.54963 6.97375 4.31117 6.87498 4.06252 6.87498C3.81388 6.87498 3.57541 6.97375 3.39959 7.14957L0.274604 10.2746C0.187544 10.3616 0.118484 10.465 0.0713673 10.5787C0.0242507 10.6925 0 10.8144 0 10.9375C0 11.0606 0.0242507 11.1825 0.0713673 11.2963C0.118484 11.41 0.187544 11.5134 0.274604 11.6004L3.39959 14.7254C3.57541 14.9012 3.81388 15 4.06252 15C4.31117 15 4.54963 14.9012 4.72545 14.7254C4.90127 14.5496 5.00004 14.3111 5.00004 14.0625C5.00004 13.8138 4.90127 13.5754 4.72545 13.3996L3.20084 11.875H17.1875C17.4361 11.875 17.6746 11.7762 17.8504 11.6004C18.0262 11.4246 18.125 11.1861 18.125 10.9375C18.125 10.6888 18.0262 10.4504 17.8504 10.2746C17.6746 10.0988 17.4361 9.99999 17.1875 9.99999Z" fill="white"/>
</svg>
