<svg width="103" height="106" viewBox="0 0 103 106" fill="none" xmlns="http://www.w3.org/2000/svg">
<path d="M66.0801 2.07225C63.4435 4.67415 63.5449 8.07665 66.283 11.5792C68.1083 13.8809 68.9196 14.1811 72.3674 13.7808C75.7139 13.3805 76.2209 13.5807 76.2209 15.2819C76.2209 18.1841 74.6998 20.4857 70.7449 23.488L67.1956 26.1899L54.7225 20.1855C47.8267 16.9832 40.1197 13.7808 37.4831 13.1804C29.3705 11.279 19.5339 12.1797 18.6212 14.9817C18.317 15.9824 19.4325 16.0825 23.8945 15.5822C32.8183 14.4813 41.2352 16.5829 54.114 23.0877C61.6182 26.8904 65.4717 29.2922 65.1675 30.1929C62.8351 38.0987 65.6745 52.6093 69.528 52.6093C70.9477 52.6093 72.1646 50.6078 74.5984 44.1031C77.6406 36.1973 78.0463 35.5968 80.2772 36.0972C84.1307 36.8978 95.6912 36.5976 98.4293 35.5968L100.863 34.7962L100.255 41.5012C99.6461 48.0059 97.0095 54.911 92.7504 61.4158C91.2293 63.8175 91.1279 64.418 92.3448 66.3194C93.6631 68.4209 93.3589 68.9213 87.7814 74.025C79.8716 81.2303 72.4688 84.6328 64.559 84.5327C56.2436 84.4326 49.8549 80.7299 46.1028 73.7248C43.9732 69.7219 45.1901 46.4048 47.4211 48.2061C48.1309 48.8065 49.3478 50.808 50.0577 52.7094C50.6661 54.6108 51.883 56.1119 52.5929 56.1119C54.621 56.1119 54.2154 54.1104 50.869 48.5063C45.9 39.9 35.6578 32.1943 28.8634 31.9942L26.024 31.8941L29.5733 30.393C33.8324 28.5917 39.207 29.0921 44.6831 31.8941C48.4352 33.7955 49.8549 33.7955 49.8549 31.9942C49.8549 31.4938 48.1309 30.2929 46.0014 29.1921C33.6296 22.9876 21.5621 27.3908 15.2748 40.5004C13.6523 43.9029 12.334 47.3054 12.334 48.106C12.2325 48.9066 10.7114 50.3076 8.68327 51.2083C5.33681 52.8095 5.134 52.8095 4.01851 50.7079C3.30865 49.6071 2.80161 45.404 2.80161 41.6012C2.80161 32.8948 5.94526 25.2893 11.2185 21.0862C13.9565 18.7845 14.5649 17.8838 13.5508 16.8831C11.6241 14.9817 3.81569 23.6881 1.68613 30.1929C-0.544846 36.6976 -0.544846 47.4055 1.58472 52.5092C2.49739 54.6108 3.20725 57.4128 3.20725 58.8139C3.20725 61.8161 8.37905 67.12 11.2185 67.12C12.4354 67.12 13.8551 68.2208 14.7677 70.0221C15.6804 71.6233 17.7086 74.2252 19.4325 75.7263C21.9677 78.128 22.4747 79.429 22.4747 83.2318C22.4747 87.7351 22.3733 87.8351 18.1142 89.1361C8.27764 92.0382 3.20725 96.4415 3.20725 101.945C3.20725 105.948 4.82977 106.149 33.224 105.948L60.5027 105.648L60.8069 102.346C61.2126 98.6431 58.7788 94.1398 56.4464 94.1398C54.5196 94.1398 54.5196 95.5408 56.4464 97.142C57.2577 97.8425 57.9675 99.4437 57.9675 100.745V103.146H32.1085C7.56778 103.146 6.24948 103.046 6.24948 101.245C6.24948 98.1427 11.1171 94.3399 17.9114 92.1383C24.5029 89.9367 25.517 88.936 25.517 84.3326C25.517 81.6306 25.6184 81.6306 32.6155 81.6306H39.6127L39.9169 85.6335C40.2211 89.9367 42.1479 91.4378 48.8408 92.8388C53.8098 93.7395 52.2887 90.9374 47.0155 89.3362C42.7563 87.9352 42.7563 87.9352 42.7563 83.1317C42.7563 77.6277 44.0746 76.0265 46.0014 79.1288C50.1591 85.7336 61.6182 89.1361 71.5562 86.6343C79.1618 84.7329 83.2181 82.231 91.2293 74.7255C97.4152 68.9213 98.9363 65.6189 95.9955 64.518C94.88 64.0177 94.9814 63.2171 97.0095 60.315C100.964 54.4106 102.79 48.2061 102.993 40.3003C103.094 32.5946 102.181 30.8934 98.4293 31.794C97.1109 32.1943 96.5025 31.794 96.5025 30.6932C96.5025 29.6925 94.1701 26.7904 91.4321 24.0884C88.3899 21.0862 86.0575 17.9839 85.7533 16.0825L85.0434 12.9802L88.9983 13.5807C94.1701 14.3813 96.5025 12.68 97.2124 7.47621C97.618 3.97364 97.4152 3.07298 95.387 1.67195C90.5194 -1.63047 87.7814 0.170851 84.2321 9.3776C83.0153 12.4799 81.4941 15.0818 80.7843 15.0818C80.1758 15.0818 78.5533 12.1797 77.3364 8.57702C74.2942 0.0707778 70.3393 -2.13084 66.0801 2.07225ZM72.9759 5.57481C74.3956 8.67709 73.5843 11.0789 71.0491 11.0789C68.8181 11.0789 66.4858 6.97584 67.3984 4.67415C68.4125 2.27239 71.6576 2.77276 72.9759 5.57481ZM94.0687 4.57408C94.4743 5.37467 94.3729 7.17599 94.0687 8.57702C93.5617 10.3783 92.7504 11.0789 90.9251 11.0789C88.7955 11.0789 88.3899 10.5785 88.3899 8.2768C88.3899 3.87357 92.7504 1.07151 94.0687 4.57408ZM82.711 18.5844C84.7392 20.6859 83.7251 23.0877 80.6829 23.0877C78.0463 23.0877 77.3364 20.3857 79.466 18.2841C80.9871 16.783 80.8857 16.783 82.711 18.5844ZM77.0322 24.889C77.9449 25.4894 77.235 28.3915 73.99 36.8978C71.4548 43.7028 69.4266 47.8058 68.8181 47.2053C68.3111 46.705 67.7027 43.7028 67.3984 40.4004C66.79 34.0957 68.2097 29.9927 72.266 25.9898C74.3956 23.8882 75.1054 23.6881 77.0322 24.889ZM90.1138 26.29C92.142 28.4916 94.4743 32.3945 94.4743 33.4953C94.4743 33.7955 92.649 34.0957 90.5194 34.0957C86.8688 34.0957 86.4631 33.7955 85.3476 30.5932C83.3195 24.3886 86.0575 21.9869 90.1138 26.29ZM82.6096 31.0935C82.9138 32.3945 82.6096 33.095 81.7984 33.095C79.973 33.095 79.1618 31.5939 79.8716 29.6925C80.5815 27.691 81.8998 28.3915 82.6096 31.0935ZM36.5704 37.8985C42.6549 42.4018 43.2634 45.1038 42.4521 64.418C41.9451 76.2266 41.438 77.2274 34.7451 79.1288C28.762 80.83 18.1142 72.9242 15.3762 64.6181C13.6523 59.4143 14.6663 48.4062 17.4043 43.1023C21.3593 35.3967 29.9789 32.9949 36.5704 37.8985ZM11.3199 57.0125C11.3199 59.2142 11.6241 61.6159 11.9283 62.5166C12.7396 64.6181 10.5086 64.6181 8.07482 62.4165C5.84385 60.415 5.74244 57.3128 7.97342 54.911C10.5086 52.209 11.3199 52.7094 11.3199 57.0125Z" fill="#543434"/>
<path d="M21.1565 46.8049C19.534 48.4061 20.7509 49.1066 25.01 49.1066C29.5734 49.1066 31.0945 47.9057 27.9509 46.7048C25.8213 45.9042 21.9678 45.9042 21.1565 46.8049Z" fill="#543434"/>
<path d="M23.6918 55.3112C23.8947 56.6122 24.5031 57.6129 25.0101 57.6129C25.6186 57.6129 26.1256 56.6122 26.3285 55.3112C26.5313 53.8101 26.1256 53.1096 25.0101 53.1096C23.8947 53.1096 23.489 53.8101 23.6918 55.3112Z" fill="#543434"/>
<path d="M26.8355 67.5198C25.2129 70.1217 35.5566 71.1224 37.6861 68.6206C38.396 67.82 38.8016 67.1195 38.5988 67.0194C35.3537 66.519 27.2411 66.8192 26.8355 67.5198Z" fill="#543434"/>
</svg>
