<svg width="50" height="18" viewBox="0 0 50 18" fill="none" xmlns="http://www.w3.org/2000/svg">
<path d="M1.02749 10.0195H48.6793C49.2462 10.0195 49.7041 9.56159 49.7041 8.99477C49.7041 8.42794 49.2462 7.97 48.6793 7.97H3.50295L9.72203 1.75092C10.1223 1.35062 10.1223 0.700527 9.72203 0.300226C9.32173 -0.100075 8.67163 -0.100075 8.27134 0.300226L0.300541 8.27102C0.00592041 8.56564 -0.0805473 9.00437 0.0795746 9.38866C0.239693 9.76975 0.614376 10.0195 1.02749 10.0195Z" fill="black"/>
<path d="M9.00776 17.9999C9.27036 17.9999 9.53296 17.9006 9.73151 17.6988C10.1318 17.2985 10.1318 16.6485 9.73151 16.2482L1.75111 8.26776C1.35081 7.86745 0.700719 7.86745 0.300418 8.26776C-0.0998831 8.66806 -0.0998831 9.31815 0.300418 9.71845L8.28082 17.6988C8.48257 17.9006 8.74517 17.9999 9.00776 17.9999Z" fill="black"/>
</svg>
