<svg width="66" height="41" viewBox="0 0 66 41" fill="none" xmlns="http://www.w3.org/2000/svg">
<ellipse cx="21" cy="20.5" rx="21" ry="20.5" fill="#FCECE6"/>
<path d="M17.0275 21.0195H64.6793C65.2462 21.0195 65.7041 20.5616 65.7041 19.9948C65.7041 19.4279 65.2462 18.97 64.6793 18.97H19.5029L25.722 12.7509C26.1223 12.3506 26.1223 11.7005 25.722 11.3002C25.3217 10.8999 24.6716 10.8999 24.2713 11.3002L16.3005 19.271C16.0059 19.5656 15.9195 20.0044 16.0796 20.3887C16.2397 20.7697 16.6144 21.0195 17.0275 21.0195Z" fill="black"/>
<path d="M25.0078 28.9999C25.2704 28.9999 25.533 28.9006 25.7315 28.6988C26.1318 28.2985 26.1318 27.6485 25.7315 27.2482L17.7511 19.2678C17.3508 18.8675 16.7007 18.8675 16.3004 19.2678C15.9001 19.6681 15.9001 20.3181 16.3004 20.7184L24.2808 28.6988C24.4826 28.9006 24.7452 28.9999 25.0078 28.9999Z" fill="black"/>
</svg>
