<svg width="20" height="18" viewBox="0 0 20 18" fill="none" xmlns="http://www.w3.org/2000/svg">
<path d="M10 17.7936C9.71523 17.7936 9.44078 17.6904 9.22684 17.503C8.41887 16.7966 7.63992 16.1327 6.95266 15.547L6.94914 15.544C4.93422 13.8269 3.19426 12.3441 1.98363 10.8833C0.630351 9.25039 0 7.70203 0 6.01059C0 4.36723 0.563516 2.85109 1.5866 1.74133C2.62191 0.618438 4.0425 0 5.58715 0C6.74164 0 7.79891 0.365 8.72957 1.08477C9.19922 1.44805 9.62492 1.8927 10 2.41133C10.3752 1.8927 10.8008 1.44805 11.2706 1.08477C12.2013 0.365 13.2585 0 14.413 0C15.9575 0 17.3782 0.618438 18.4136 1.74133C19.4366 2.85109 20 4.36723 20 6.01059C20 7.70199 19.3698 9.25035 18.0165 10.8832C16.8059 12.3441 15.0661 13.8268 13.0514 15.5437C12.363 16.1302 11.5828 16.7952 10.773 17.5034C10.559 17.6905 10.2843 17.7937 10 17.7936ZM5.58715 1.17156C4.37363 1.17156 3.25883 1.6559 2.44781 2.53539C1.62477 3.4282 1.17141 4.66234 1.17141 6.01059C1.17141 7.43316 1.70012 8.70543 2.88559 10.1358C4.03137 11.5184 5.73563 12.9707 7.70891 14.6524L7.71254 14.6555C8.40238 15.2434 9.18441 15.9099 9.99832 16.6216C10.8171 15.9085 11.6004 15.2409 12.2916 14.6521C14.2647 12.9704 15.9688 11.5184 17.1146 10.1358C18.2999 8.70543 18.8286 7.43316 18.8286 6.01059C18.8286 4.66231 18.3752 3.42816 17.5522 2.53539C16.7413 1.6559 15.6264 1.17156 14.413 1.17156C13.524 1.17156 12.7078 1.45418 11.9871 2.01141C11.3449 2.50824 10.8975 3.13629 10.6352 3.57574C10.5004 3.80172 10.2629 3.9366 10 3.9366C9.73707 3.9366 9.49965 3.80172 9.36477 3.57574C9.10266 3.13629 8.65523 2.50824 8.01281 2.01141C7.29219 1.45418 6.47598 1.17156 5.58715 1.17156Z" fill="white"/>
</svg>
