<svg width="26" height="30" viewBox="0 0 26 30" fill="none" xmlns="http://www.w3.org/2000/svg">
<path d="M19.3018 14.4375C20.8196 12.8532 21.6659 10.754 21.6667 8.57143C21.6667 3.84536 17.7786 0 13 0C8.22142 0 4.33333 3.84536 4.33333 8.57143C4.33333 10.8418 5.23683 12.9021 6.69825 14.4375C2.36708 16.8279 0 21.8914 0 28.9286C0 29.2127 0.114137 29.4853 0.317301 29.6862C0.520466 29.8871 0.796016 30 1.08333 30H24.9167C25.204 30 25.4795 29.8871 25.6827 29.6862C25.8859 29.4853 26 29.2127 26 28.9286C26 21.8904 23.6329 16.8279 19.3018 14.4375ZM13 2.14286C16.5848 2.14286 19.5 5.02607 19.5 8.57143C19.5 12.1168 16.5848 15 13 15C9.41525 15 6.5 12.1168 6.5 8.57143C6.5 5.02607 9.41525 2.14286 13 2.14286ZM2.18617 27.8571C2.35625 23.3207 3.68983 18.0075 8.55942 15.9182C9.85942 16.6907 11.3761 17.1429 13 17.1429C14.6239 17.1429 16.1406 16.6907 17.4406 15.9182C22.3091 18.0064 23.6438 23.3207 23.8128 27.8571H2.18617Z" fill="#543434"/>
</svg>
