<svg width="105" height="113" viewBox="0 0 105 113" fill="none" xmlns="http://www.w3.org/2000/svg">
<path d="M80.3711 52.7724C80.2763 52.6589 80.1585 52.5678 80.026 52.5054C79.8935 52.4429 79.7493 52.4106 79.6035 52.4106C79.4576 52.4106 79.3135 52.4429 79.181 52.5054C79.0485 52.5678 78.9307 52.6589 78.8358 52.7724L74.0551 57.6686C73.8668 57.8626 73.7611 58.125 73.7611 58.3984C73.7611 58.6719 73.8668 58.9343 74.0551 59.1282C74.249 59.3145 74.5069 59.4149 74.7727 59.4077C74.9057 59.4085 75.0376 59.3824 75.1607 59.3309C75.2838 59.2794 75.3959 59.2034 75.4903 59.1075L80.261 54.2319C80.4646 54.0533 80.5905 53.7992 80.6112 53.5255C80.6319 53.2518 80.5455 52.9809 80.3711 52.7724ZM50.8988 54.6667C50.7095 54.4739 50.4533 54.3657 50.1863 54.3657C49.9193 54.3657 49.6631 54.4739 49.4737 54.6667L45.5622 58.6313C45.4679 58.7271 45.393 58.8409 45.3417 58.9663C45.2904 59.0916 45.2637 59.2261 45.2632 59.3621C45.2627 59.498 45.2883 59.6328 45.3386 59.7586C45.3889 59.8844 45.4629 59.9988 45.5563 60.0953L45.5622 60.1013C45.652 60.2035 45.7608 60.2864 45.8823 60.3451C46.0038 60.4037 46.1355 60.437 46.2697 60.4429C46.4027 60.4436 46.5346 60.4175 46.6577 60.366C46.7808 60.3145 46.8928 60.2386 46.9873 60.1427L50.8988 56.1263C51.0871 55.9323 51.1928 55.6699 51.1928 55.3965C51.1928 55.123 51.0871 54.8606 50.8988 54.6667ZM54.8306 50.6089C54.6412 50.4161 54.3851 50.3079 54.118 50.3079C53.851 50.3079 53.5948 50.4161 53.4055 50.6089L52.0814 51.9649C51.8932 52.1589 51.7875 52.4212 51.7875 52.6947C51.7875 52.9682 51.8932 53.2306 52.0814 53.4245C52.1758 53.5204 52.2879 53.5963 52.411 53.6479C52.5341 53.6994 52.666 53.7255 52.799 53.7247C53.0642 53.7236 53.3183 53.6158 53.5065 53.4245L54.8306 52.0684C55.0189 51.8745 55.1245 51.6121 55.1245 51.3387C55.1245 51.0652 55.0189 50.8028 54.8306 50.6089ZM49.2928 75.463C49.1096 75.3024 48.8764 75.2142 48.6353 75.2142C48.3942 75.2142 48.161 75.3024 47.9778 75.463L45.9563 77.5333C45.7681 77.7272 45.6624 77.9896 45.6624 78.2631C45.6624 78.5366 45.7681 78.7989 45.9563 78.9929C46.1457 79.1857 46.4019 79.2939 46.6689 79.2939C46.9359 79.2939 47.1921 79.1857 47.3815 78.9929L49.403 76.9225C49.5773 76.714 49.6637 76.4431 49.643 76.1694C49.6224 75.8957 49.4964 75.6416 49.2928 75.463ZM73.1664 51.0126C72.9832 50.8519 72.75 50.7636 72.5089 50.7636C72.2677 50.7636 72.0345 50.8519 71.8514 51.0126L52.0814 71.2602C51.8932 71.4542 51.7875 71.7166 51.7875 71.99C51.7875 72.2635 51.8932 72.5259 52.0814 72.7198C52.1758 72.8158 52.2879 72.8917 52.411 72.9432C52.5341 72.9947 52.666 73.0208 52.799 73.02C53.0642 73.0189 53.3183 72.9111 53.5065 72.7198L73.2765 52.4722C73.4509 52.2636 73.5373 51.9927 73.5166 51.719C73.4959 51.4453 73.37 51.1912 73.1664 51.0126Z" fill="#543434"/>
<path d="M103.073 99.2611H79.8262C98.5763 89.8712 106.344 66.692 97.1754 47.4891C88.0071 28.2859 65.3747 20.3307 46.6247 29.7206C42.2823 31.8953 38.3875 34.9029 35.1516 38.5805V34.8747C35.1354 34.4806 35.0095 34.0995 34.789 33.7762C34.5684 33.4529 34.2622 33.2009 33.9065 33.0497C33.5508 32.8986 33.1604 32.8546 32.7811 32.923C32.4019 32.9914 32.0496 33.1693 31.7657 33.4358L22.3658 43.0628C21.9913 43.439 21.6945 43.8886 21.4931 44.3848C21.2916 44.881 21.1897 45.4135 21.1934 45.9509V60.443H21.1327C20.8647 60.443 20.6076 60.5521 20.418 60.7462C20.2285 60.9404 20.122 61.2037 20.122 61.4782V67.4407C20.1172 67.4889 20.1172 67.5374 20.122 67.5856C19.5072 67.9786 18.9994 68.5244 18.646 69.1723C18.2926 69.8203 18.1049 70.5493 18.1005 71.2915V79.2829H15.5737V73.9829C15.5737 73.7084 15.4672 73.4451 15.2776 73.2509C15.0881 73.0568 14.831 72.9477 14.5629 72.9477H13.3602V67.3887C13.3602 67.1141 13.2537 66.8508 13.0641 66.6567C12.8746 66.4626 12.6175 66.3535 12.3494 66.3535H9.09487V29.6055H10.894C11.162 29.6055 11.4191 29.4964 11.6087 29.3023C11.7982 29.1082 11.9047 28.8449 11.9047 28.5703C11.9047 28.2958 11.7982 28.0325 11.6087 27.8384C11.4191 27.6442 11.162 27.5352 10.894 27.5352H9.09487V24.792H13.1378C13.4059 24.792 13.663 24.6829 13.8525 24.4888C14.0421 24.2947 14.1485 24.0314 14.1485 23.7568C14.1485 23.4823 14.0421 23.219 13.8525 23.0249C13.663 22.8307 13.4059 22.7217 13.1378 22.7217H9.09487V19.9785H13.1378C13.4059 19.9785 13.663 19.8695 13.8525 19.6753C14.0421 19.4812 14.1485 19.2179 14.1485 18.9434C14.1485 18.6688 14.0421 18.4055 13.8525 18.2114C13.663 18.0173 13.4059 17.9082 13.1378 17.9082H9.09487V15.165H13.1378C13.4059 15.165 13.663 15.056 13.8525 14.8619C14.0421 14.6677 14.1485 14.4044 14.1485 14.1299C14.1485 13.8553 14.0421 13.592 13.8525 13.3979C13.663 13.2038 13.4059 13.0947 13.1378 13.0947H9.09487V10.3516H13.1378C13.4059 10.3516 13.663 10.2425 13.8525 10.0484C14.0421 9.85424 14.1485 9.59095 14.1485 9.31641C14.1485 9.04187 14.0421 8.77857 13.8525 8.58444C13.663 8.39031 13.4059 8.28125 13.1378 8.28125H9.09487V5.57949H10.894C11.162 5.57949 11.4191 5.47043 11.6087 5.2763C11.7982 5.08217 11.9047 4.81888 11.9047 4.54434C11.9047 4.2698 11.7982 4.0065 11.6087 3.81237C11.4191 3.61824 11.162 3.50918 10.894 3.50918H9.09487V1.03516C9.09487 0.760616 8.98838 0.49732 8.79883 0.30319C8.60928 0.109061 8.3522 0 8.08413 0C7.81607 0 7.55898 0.109061 7.36943 0.30319C7.17988 0.49732 7.0734 0.760616 7.0734 1.03516V3.50918H5.23386C4.96579 3.50918 4.70871 3.61824 4.51916 3.81237C4.32961 4.0065 4.22312 4.2698 4.22312 4.54434C4.22312 4.81888 4.32961 5.08217 4.51916 5.2763C4.70871 5.47043 4.96579 5.57949 5.23386 5.57949H7.0734V8.32266H3.03045C2.76239 8.32266 2.50531 8.43172 2.31576 8.62585C2.12621 8.81998 2.01972 9.08327 2.01972 9.35781C2.01972 9.63235 2.12621 9.89565 2.31576 10.0898C2.50531 10.2839 2.76239 10.393 3.03045 10.393H7.0734V13.1361H3.03045C2.76239 13.1361 2.50531 13.2452 2.31576 13.4393C2.12621 13.6335 2.01972 13.8967 2.01972 14.1713C2.01972 14.4458 2.12621 14.7091 2.31576 14.9033C2.50531 15.0974 2.76239 15.2064 3.03045 15.2064H7.0734V17.9496H3.03045C2.76239 17.9496 2.50531 18.0587 2.31576 18.2528C2.12621 18.4469 2.01972 18.7102 2.01972 18.9848C2.01972 19.2593 2.12621 19.5226 2.31576 19.7167C2.50531 19.9109 2.76239 20.0199 3.03045 20.0199H7.0734V22.7631H3.03045C2.76239 22.7631 2.50531 22.8722 2.31576 23.0663C2.12621 23.2604 2.01972 23.5237 2.01972 23.7982C2.01972 24.0728 2.12621 24.3361 2.31576 24.5302C2.50531 24.7243 2.76239 24.8334 3.03045 24.8334H7.0734V27.5766H5.23386C4.96579 27.5766 4.70871 27.6856 4.51916 27.8798C4.32961 28.0739 4.22312 28.3372 4.22312 28.6117C4.22312 28.8863 4.32961 29.1496 4.51916 29.3437C4.70871 29.5378 4.96579 29.6469 5.23386 29.6469H7.0734V66.3949H3.81883C3.55076 66.3949 3.29368 66.504 3.10413 66.6981C2.91458 66.8923 2.80809 67.1555 2.80809 67.4301V72.9889H1.59521C1.32714 72.9889 1.07006 73.0979 0.880511 73.2921C0.690961 73.4862 0.584473 73.7495 0.584473 74.024V111.611C0.594921 111.878 0.706004 112.131 0.894433 112.316C1.08286 112.501 1.334 112.605 1.59521 112.604H33.868C34.0532 112.615 34.2388 112.615 34.4239 112.604C34.4846 112.61 34.5452 112.61 34.6058 112.604H92.8343C99.0451 112.599 104.078 107.444 104.084 101.083V100.296C104.084 100.022 103.977 99.7585 103.788 99.5643C103.598 99.3702 103.341 99.2611 103.073 99.2611ZM35.1516 41.81C47.3871 25.9325 69.8734 23.2196 85.3764 35.7504C100.879 48.2815 103.528 71.3111 91.293 87.1886C86.9546 92.8184 81.0977 97.0197 74.4491 99.2712H51.9804C46.7984 97.4996 42.0797 94.5398 38.1838 90.6173V82.4913C47.9086 96.6505 66.9994 100.055 80.8245 90.0948C94.6496 80.1351 97.9734 60.583 88.2486 46.4239C78.5238 32.2648 59.433 28.8607 45.608 38.8204C41.0111 42.132 37.3935 46.6761 35.1516 51.9542V41.81ZM46.6639 99.2508H38.1636V93.4436C40.7283 95.7632 43.5876 97.7167 46.6639 99.2508ZM23.2148 45.9506C23.2147 45.6925 23.2646 45.4369 23.3618 45.1988C23.459 44.9607 23.6014 44.7447 23.7809 44.5635L33.1302 34.8744V60.4428H23.2148V45.9506ZM22.1437 62.5131H34.1412V66.9229C34.0401 66.9172 33.939 66.9172 33.8379 66.9229H22.1437V62.5131ZM4.82956 68.4238H11.3387V72.9475H4.82956V68.4238ZM7.73037 83.682V110.534H2.60594V75.0178H13.5522V79.2826H12.0159C9.64749 79.2883 7.73037 81.2564 7.73037 83.682ZM25.6608 110.503H9.75185V101.942L15.038 98.0604C15.2559 97.9021 15.4037 97.6618 15.4492 97.3922C15.4946 97.1226 15.434 96.8455 15.2806 96.6215C15.125 96.3979 14.889 96.2469 14.6246 96.2015C14.3603 96.1561 14.0891 96.2202 13.8708 96.3795L13.8655 96.3834L9.75185 99.3957V96.5076L15.038 92.6258C15.2559 92.4675 15.4037 92.2272 15.4492 91.9576C15.4946 91.688 15.434 91.4109 15.2806 91.1869C15.125 90.9634 14.889 90.8123 14.6246 90.7669C14.3603 90.7215 14.0891 90.7856 13.8708 90.945L13.8655 90.9488L9.75185 93.9611V83.6096C9.75051 83.3051 9.80776 83.0033 9.92031 82.7214C10.0329 82.4396 10.1985 82.1832 10.4078 81.9669C10.6171 81.7507 10.866 81.5787 11.1401 81.4609C11.4143 81.3431 11.7085 81.2818 12.0058 81.2805H12.0159L23.3867 81.3219C23.9898 81.3219 24.5683 81.5673 24.9947 82.0041C25.4212 82.4408 25.6608 83.0333 25.6608 83.651V110.503ZM36.1624 91.0524V108.205C36.1597 108.821 35.9189 109.411 35.4927 109.845C35.0665 110.28 34.4896 110.524 33.8882 110.524H27.7328V83.682C27.7328 81.2523 25.8097 79.2826 23.4372 79.2826H20.1725L20.122 71.2912C20.122 70.6735 20.3616 70.0811 20.7881 69.6443C21.2146 69.2075 21.793 68.9621 22.3962 68.9621H33.8175C34.4203 68.9429 35.0059 69.1697 35.4455 69.5926C35.885 70.0156 36.1426 70.6001 36.1614 71.2175C36.1624 71.2524 36.1626 71.2873 36.1624 71.3223V91.0524ZM36.1624 67.6578C36.1672 67.6096 36.1672 67.5611 36.1624 67.5129V61.4779C36.1624 61.2034 36.0559 60.9401 35.8663 60.746C35.6768 60.5518 35.4197 60.4428 35.1516 60.4428V58.89L35.4245 57.6065C39.1246 41.8832 54.5694 32.2089 69.9217 35.9983C85.274 39.7878 94.7201 55.6058 91.0201 71.329C87.32 87.0523 71.8752 96.7266 56.5229 92.9371C52.6622 91.9842 49.0376 90.2181 45.8801 87.7514C42.7227 85.2846 40.1016 82.1713 38.1838 78.6098V71.3637C38.1823 70.6209 37.9959 69.8908 37.6422 69.2423C37.2885 68.5939 36.7792 68.0485 36.1624 67.6578ZM92.8343 110.524H37.5067C37.9352 109.834 38.1631 109.033 38.1636 108.215V101.321H102.052C101.921 106.439 97.8337 110.52 92.8343 110.524Z" fill="#543434"/>
<path d="M94.5426 103.847H90.8433C90.5752 103.847 90.3181 103.956 90.1286 104.15C89.939 104.344 89.8326 104.607 89.8326 104.882C89.8326 105.157 89.939 105.42 90.1286 105.614C90.3181 105.808 90.5752 105.917 90.8433 105.917H94.5426C94.8106 105.917 95.0677 105.808 95.2573 105.614C95.4468 105.42 95.5533 105.157 95.5533 104.882C95.5533 104.607 95.4468 104.344 95.2573 104.15C95.0677 103.956 94.8106 103.847 94.5426 103.847ZM85.6276 103.847H68.8393C68.5712 103.847 68.3142 103.956 68.1246 104.15C67.9351 104.344 67.8286 104.607 67.8286 104.882C67.8286 105.157 67.9351 105.42 68.1246 105.614C68.3142 105.808 68.5712 105.917 68.8393 105.917H85.6276C85.8957 105.917 86.1528 105.808 86.3423 105.614C86.5319 105.42 86.6384 105.157 86.6384 104.882C86.6384 104.607 86.5319 104.344 86.3423 104.15C86.1528 103.956 85.8957 103.847 85.6276 103.847ZM25.9844 46.3646C25.7163 46.3646 25.4592 46.4737 25.2697 46.6678C25.0801 46.8619 24.9736 47.1252 24.9736 47.3998V55.3498C24.9736 55.6243 25.0801 55.8876 25.2697 56.0817C25.4592 56.2759 25.7163 56.3849 25.9844 56.3849C26.2524 56.3849 26.5095 56.2759 26.6991 56.0817C26.8886 55.8876 26.9951 55.6243 26.9951 55.3498V47.3998C26.9951 47.1252 26.8886 46.8619 26.6991 46.6678C26.5095 46.4737 26.2524 46.3646 25.9844 46.3646Z" fill="#543434"/>
</svg>
