<svg width="108" height="110" viewBox="0 0 108 110" fill="none" xmlns="http://www.w3.org/2000/svg">
<path d="M37.3619 79.4888L37.8617 80.0006C39.3611 81.5384 39.3653 84.0252 37.868 85.5587C37.513 85.9229 37.0913 86.2117 36.6271 86.4086C36.1629 86.6055 35.6653 86.7066 35.1628 86.7062C34.1778 86.7062 33.1949 86.3201 32.4431 85.5502L17.4284 70.1727C16.2122 68.928 15.4349 67.3043 15.2189 65.5573L13.4113 51.3316C13.2447 50.0327 12.6637 48.8213 11.7557 47.8914L2.30127 38.2085M32.2036 74.208L25.7958 67.6454" stroke="#543434" stroke-width="3" stroke-miterlimit="10" stroke-linecap="round" stroke-linejoin="round"/>
<path d="M13.9007 22.3085L27.6784 36.4191C30.1251 38.9231 31.6057 42.2483 31.8475 45.7821L32.6847 61.9956C32.9138 65.2502 30.5231 68.0613 27.3452 68.2724C27.3035 68.2745 27.2619 68.2767 27.2182 68.2767C26.2144 68.2767 25.3648 67.4769 25.2898 66.4339L24.2215 47.7421M8.7403 17.0234L2.30127 10.4288M82.3063 67.6449L70.241 80.0017C68.7408 81.5382 68.7374 84.0259 70.2335 85.5581C71.7295 87.0903 74.1586 87.0869 75.6588 85.5504L90.6728 70.1736C91.8892 68.9287 92.667 67.3049 92.8838 65.5578L94.6914 51.332C94.8577 50.0295 95.4397 48.8199 96.347 47.8914L105.801 38.2094" stroke="#543434" stroke-width="3" stroke-miterlimit="10" stroke-linecap="round" stroke-linejoin="round"/>
<path d="M75.6132 58.1992L75.4175 61.9956C75.1884 65.2502 77.5791 68.0613 80.757 68.2724C80.7986 68.2745 80.8403 68.2767 80.884 68.2767C81.8878 68.2767 82.7374 67.4769 82.8124 66.4339L83.8807 47.7421M75.9985 50.7344L76.2546 45.7821C76.4964 42.2483 77.9771 38.923 80.4238 36.4191L105.801 10.4288M44.1959 85.6056V92.2489C44.1959 95.1806 42.118 97.6788 39.2918 98.1448L25.0506 100.493C22.9898 100.833 21.0458 101.699 19.3979 103.011C17.7499 104.323 16.4511 106.039 15.6211 108M63.9066 85.6056V92.2489C63.9066 95.1806 65.9845 97.6788 68.8106 98.1448L83.0517 100.493C85.1124 100.833 87.0564 101.699 88.7043 103.011C90.3523 104.323 91.6512 106.039 92.4811 108M70.0316 80.1962C65.2233 84.6359 58.8603 89.4969 54.0512 89.4969C49.2421 89.4969 42.8793 84.6359 38.0709 80.1962M50.0862 66.4105C52.5158 67.3361 54.9452 67.3361 57.3749 66.4105M77.9185 6.92036C78.8661 7.48982 79.7886 8.07207 80.6695 8.65219C85.5571 11.8642 87.8062 17.9832 86.2464 23.7119L85.9548 24.7271M54.0512 3.46736C54.1658 3.46523 58.3286 2 64.7843 2C66.7689 2 69.0493 2.61851 71.3983 3.5804" stroke="#543434" stroke-width="3" stroke-miterlimit="10" stroke-linecap="round" stroke-linejoin="round"/>
<path d="M76.5419 43.7114C70.3212 33.8414 63.5262 27.1336 54.0514 24.3944M54.0514 24.3944C44.8039 27.5224 37.8313 33.9476 31.5674 43.744M54.0514 24.3944C60.7392 10.6837 50.2069 13.3968 54.0514 3.46782C54.0224 3.58235 49.7739 2.00024 43.3182 2.00024C38.6699 2.00024 32.3942 5.39096 27.4333 8.65222C22.5461 11.8651 20.2958 17.9824 21.8568 23.7113L22.1477 24.7273M88.1333 28.5233C87.211 26.5621 85.8453 24.8546 84.1495 23.5423L75.6134 16.9296" stroke="#543434" stroke-width="3" stroke-miterlimit="10" stroke-linecap="round" stroke-linejoin="round"/>
<path d="M20.2017 28.0538C21.1156 26.2874 22.3963 24.7476 23.9537 23.5425L32.4896 16.9296M70.9057 47.002C67.1181 45.7936 63.7076 44.8694 59.4579 47.002M37.1974 47.002C40.985 45.7936 44.3955 44.8694 48.6452 47.002M60.1139 75.0383C58.3134 75.9519 56.4531 75.8585 54.5716 75.1396C53.9624 74.9062 53.2913 74.9062 52.6821 75.1396C50.8006 75.8585 48.9403 75.9519 47.1398 75.0383M37.9086 56.0293C40.7537 57.1311 43.5988 57.1311 46.4438 56.0293M70.1946 56.0293C67.3495 57.1311 64.5044 57.1311 61.6593 56.0293" stroke="#543434" stroke-width="3" stroke-miterlimit="10" stroke-linecap="round" stroke-linejoin="round"/>
</svg>
