<svg width="105" height="106" viewBox="0 0 105 106" fill="none" xmlns="http://www.w3.org/2000/svg">
<path d="M77.6104 71.8066C74.937 71.8088 72.3033 72.4692 69.9314 73.7323C67.5595 74.9954 65.519 76.8241 63.9818 79.0642C63.4163 75.782 61.9244 72.7412 59.6905 70.3176C57.4566 67.8939 54.5784 66.1935 51.4115 65.4262C48.2445 64.659 44.9275 64.8586 41.8701 66.0004C38.8127 67.1422 36.1487 69.1762 34.2073 71.8511V44.6962C34.2142 42.2253 33.7424 39.7774 32.8192 37.4945C31.8959 35.2116 30.5396 33.1389 28.8287 31.3966L27.5299 30.0665V25.6453C27.5299 24.285 27.0023 22.9804 26.0631 22.0185C25.1239 21.0566 23.8501 20.5162 22.5219 20.5162H12.5058C11.1776 20.5162 9.90379 21.0566 8.9646 22.0185C8.02541 22.9804 7.49778 24.285 7.49778 25.6453V30.0665L6.19902 31.3966C4.48816 33.1389 3.13183 35.2116 2.20857 37.4945C1.28531 39.7774 0.813471 42.2253 0.820387 44.6962V104.291C0.820387 104.744 0.996264 105.179 1.30933 105.499C1.62239 105.82 2.047 106 2.48973 106H92.6345C93.0772 106 93.5018 105.82 93.8149 105.499C94.1279 105.179 94.3038 104.744 94.3038 104.291V88.9035C94.299 84.3706 92.5386 80.0249 89.409 76.8197C86.2795 73.6145 82.0362 71.8116 77.6104 71.8066ZM24.1912 25.6453V33.3029C21.8335 34.9384 19.8666 37.0978 18.4373 39.6203C17.0079 42.1427 16.153 44.9631 15.9363 47.8711H15.8445C14.5163 47.8711 13.2425 47.3307 12.3033 46.3689C11.3641 45.407 10.8365 44.1024 10.8365 42.7421V38.5038C13.1943 36.8683 15.1611 34.7089 16.5905 32.1864C18.0198 29.664 18.8747 26.8436 19.0914 23.9356H22.5219C22.9646 23.9356 23.3892 24.1157 23.7023 24.4364C24.0154 24.757 24.1912 25.1918 24.1912 25.6453ZM24.1912 37.6472V42.7421C24.1888 44.0845 23.6727 45.3724 22.7535 46.3294C21.8344 47.2864 20.5855 47.8363 19.275 47.8609C19.6327 43.9533 21.3828 40.3174 24.1912 37.6472ZM12.5058 23.9356H15.7527C15.3973 27.8468 13.647 31.4866 10.8365 34.1595V25.6453C10.8365 25.1918 11.0123 24.757 11.3254 24.4364C11.6385 24.1157 12.0631 23.9356 12.5058 23.9356ZM4.15908 44.6962C4.1504 41.1757 5.32986 37.7602 7.49778 35.028V42.7421C7.50043 45.0084 8.38066 47.1812 9.94541 48.7837C11.5101 50.3863 13.6316 51.2878 15.8445 51.2905H19.1832C21.3961 51.2878 23.5176 50.3863 25.0823 48.7837C26.6471 47.1812 27.5273 45.0084 27.5299 42.7421V35.028C29.6979 37.7602 30.8773 41.1757 30.8686 44.6962V102.581H4.15908V44.6962ZM34.2073 82.0647C34.2073 78.4372 35.6143 74.9583 38.1189 72.3933C40.6234 69.8283 44.0202 68.3873 47.5621 68.3873C51.104 68.3873 54.5009 69.8283 57.0054 72.3933C59.5099 74.9583 60.9169 78.4372 60.9169 82.0647V102.581H34.2073V82.0647ZM90.9651 102.581H64.2556V88.9035C64.2556 85.276 65.6626 81.7971 68.1671 79.232C70.6716 76.667 74.0684 75.226 77.6104 75.226C81.1523 75.226 84.5491 76.667 87.0536 79.232C89.5581 81.7971 90.9651 85.276 90.9651 88.9035V102.581Z" fill="#543434"/>
<path d="M7.49828 58.1292H27.5304V61.5485H7.49828V58.1292ZM7.49828 64.9679H27.5304V68.3873H7.49828V64.9679ZM37.5465 78.6453H57.5787V82.0647H37.5465V78.6453ZM37.5465 85.4841H57.5787V88.9034H37.5465V85.4841ZM67.5948 85.4841H87.6269V88.9034H67.5948V85.4841ZM67.5948 92.3228H87.6269V95.7421H67.5948V92.3228ZM92.0273 4.69405e-05C90.4123 -0.00448458 88.8125 0.319123 87.3205 0.952135C85.8284 1.58515 84.4738 2.51499 83.335 3.68783L66.4145 21.0171L63.767 23.7287C62.8281 24.6905 62.3007 25.9949 62.3007 27.3549C62.3007 28.715 62.8281 30.0193 63.767 30.9812L65.2343 32.484L53.1766 44.833L43.2974 51.5777C43.092 51.7181 42.9196 51.9034 42.7925 52.1202C42.6655 52.3371 42.587 52.5801 42.5627 52.8318C42.5384 53.0835 42.569 53.3375 42.6522 53.5757C42.7353 53.8138 42.8691 54.0301 43.0437 54.2089L51.3904 62.7573C51.7034 63.0779 52.1279 63.2581 52.5706 63.2582C52.6257 63.2582 52.6791 63.2582 52.7376 63.2497C52.9831 63.2247 53.2203 63.1443 53.4319 63.0142C53.6434 62.8841 53.8242 62.7076 53.9612 62.4974L60.5468 52.3795L72.6028 40.0305L74.0685 41.5333C74.5335 42.0097 75.0857 42.3876 75.6933 42.6454C76.301 42.9032 76.9523 43.0359 77.61 43.0359C78.2678 43.0359 78.919 42.9032 79.5267 42.6454C80.1344 42.3876 80.6865 42.0097 81.1515 41.5333L83.7991 38.8218L100.72 21.4924C102.439 19.7317 103.609 17.4884 104.084 15.0462C104.558 12.604 104.315 10.0727 103.384 7.77218C102.454 5.4717 100.878 3.50543 98.8568 2.122C96.8353 0.738582 94.4586 0.000137785 92.0273 4.69405e-05ZM52.3119 58.866L46.8448 53.2651L54.023 48.3618L57.0946 51.5076L52.3119 58.866ZM59.248 48.873L56.6005 46.1614L67.5948 34.9015L70.2423 37.613L59.248 48.873ZM76.4306 39.1158L66.1291 28.5637C65.8161 28.2431 65.6403 27.8083 65.6403 27.3549C65.6403 26.9016 65.8161 26.4668 66.1291 26.1462L67.5948 24.6434L80.2584 37.613L78.7911 39.1158C78.4737 39.4278 78.0508 39.602 77.6109 39.602C77.1709 39.602 76.748 39.4278 76.4306 39.1158ZM82.6189 35.1955L69.9552 22.2259L82.6189 9.25626L95.2826 22.2259L82.6189 35.1955ZM98.3592 19.0749L97.643 19.8084L84.9794 6.83877L85.6955 6.10532C87.3748 4.38544 89.6524 3.41922 92.0273 3.41922C94.4022 3.41922 96.6799 4.38544 98.3592 6.10532C100.038 7.8252 100.982 10.1579 100.982 12.5901C100.982 15.0224 100.038 17.3551 98.3592 19.0749ZM25.8611 13.6775C28.074 13.6802 30.1955 14.5817 31.7602 16.1843C33.3249 17.7868 34.2052 19.9595 34.2078 22.2259C34.2078 22.6793 34.3837 23.1142 34.6968 23.4348C35.0098 23.7554 35.4344 23.9356 35.8772 23.9356C36.3199 23.9356 36.7445 23.7554 37.0576 23.4348C37.3706 23.1142 37.5465 22.6793 37.5465 22.2259C37.5492 19.9595 38.4294 17.7868 39.9942 16.1843C41.5589 14.5817 43.6804 13.6802 45.8933 13.6775C46.336 13.6775 46.7606 13.4974 47.0737 13.1767C47.3867 12.8561 47.5626 12.4212 47.5626 11.9678C47.5626 11.5144 47.3867 11.0795 47.0737 10.7589C46.7606 10.4383 46.336 10.2581 45.8933 10.2581C43.6804 10.2554 41.5589 9.35391 39.9942 7.75136C38.4294 6.14881 37.5492 3.97607 37.5465 1.70973C37.5465 1.25629 37.3706 0.821428 37.0576 0.500801C36.7445 0.180173 36.3199 4.69405e-05 35.8772 4.69405e-05C35.4344 4.69405e-05 35.0098 0.180173 34.6968 0.500801C34.3837 0.821428 34.2078 1.25629 34.2078 1.70973C34.2052 3.97607 33.3249 6.14881 31.7602 7.75136C30.1955 9.35391 28.074 10.2554 25.8611 10.2581C25.4184 10.2581 24.9937 10.4383 24.6807 10.7589C24.3676 11.0795 24.1917 11.5144 24.1917 11.9678C24.1917 12.4212 24.3676 12.8561 24.6807 13.1767C24.9937 13.4974 25.4184 13.6775 25.8611 13.6775ZM35.8772 7.86458C36.8673 9.54538 38.2425 10.9538 39.8836 11.9678C38.2425 12.9819 36.8673 14.3902 35.8772 16.071C34.887 14.3902 33.5119 12.9819 31.8707 11.9678C33.5119 10.9538 34.887 9.54538 35.8772 7.86458ZM5.82893 17.0969H9.16762V13.6775H12.5063V10.2581H9.16762V6.83877H5.82893V10.2581H2.49023V13.6775H5.82893V17.0969ZM44.2239 39.3227V35.9033H47.5626V32.484H44.2239V29.0646H40.8852V32.484H37.5465V35.9033H40.8852V39.3227H44.2239Z" fill="#543434"/>
</svg>
