<svg width="1304" height="848" viewBox="0 0 1304 848" fill="none" xmlns="http://www.w3.org/2000/svg">
<path d="M29.8929 847.39C29.8929 847.39 -92.4384 397.015 271.4 436.186C635.469 475.355 415.542 120.6 774.624 24.492C1163.92 -79.7209 1289.84 234.631 1289.84 234.631" stroke="#543434" stroke-width="0.3702" stroke-miterlimit="10"/>
<path d="M34.816 846.628C34.816 846.628 -87.1068 400.929 274.507 439.003C306.811 442.531 334.467 442.738 358.347 440.513C601.113 417.336 452.762 119.742 775.102 33.1368C1158.35 -69.9073 1283.74 237.969 1286.58 240.633" stroke="#543434" stroke-width="0.3702" stroke-miterlimit="10"/>
<path d="M39.5032 845.873C39.5032 845.873 -81.9977 404.627 277.146 441.83C309.003 445.137 336.417 445.571 360.298 443.346C601.421 420.855 457.887 127.461 775.357 41.5663C1152.79 -60.3108 1277.17 241.317 1283.11 246.195" stroke="#543434" stroke-width="0.3702" stroke-miterlimit="10"/>
<path d="M44.4257 845.114C44.4257 845.114 -76.8846 408.322 280.252 444.649C311.88 447.959 339.078 448.17 362.716 446.172C602.195 424.367 463.249 135.172 776.066 50.2109C1147.47 -50.7217 1271.08 244.433 1280.09 251.973" stroke="#543434" stroke-width="0.3702" stroke-miterlimit="10"/>
<path d="M49.1145 844.354C49.1145 844.354 -71.7738 412.016 282.906 447.247C314.087 450.337 341.042 450.775 364.681 448.777C602.516 427.658 468.158 142.665 776.565 58.4113C1141.9 -41.1279 1264.75 247.551 1276.6 257.756" stroke="#543434" stroke-width="0.3702" stroke-miterlimit="10"/>
<path d="M54.0364 843.596C54.0364 843.596 -66.4309 415.71 286.012 450.068C316.964 453.161 343.689 453.6 367.098 451.604C603.29 431.172 473.751 150.376 777.274 67.058C1136.56 -31.3125 1258.63 251.117 1273.57 263.761" stroke="#543434" stroke-width="0.3702" stroke-miterlimit="10"/>
<path d="M58.7264 842.834C58.7264 842.834 -61.5496 419.404 288.654 452.889C319.145 455.985 345.654 456.203 369.064 454.206C603.625 434.237 478.648 158.092 777.543 75.2588C1131.01 -21.9443 1252.31 254.008 1270.11 269.094" stroke="#543434" stroke-width="0.3702" stroke-miterlimit="10"/>
<path d="M63.6481 842.077C63.6481 842.077 -56.1674 422.426 291.759 455.711C322.034 458.586 348.301 459.03 371.481 457.035C604.398 437.752 484.01 165.808 778.264 83.6839C1125.67 -12.1261 1246.21 257.351 1267.09 274.876" stroke="#543434" stroke-width="0.3702" stroke-miterlimit="10"/>
<path d="M68.3385 841.318C68.3385 841.318 -51.043 425.895 294.401 458.532C324.217 461.411 350.267 461.633 373.436 459.863C604.71 441.267 489.141 173.521 778.741 92.3305C1120.12 -2.53487 1239.87 260.691 1263.83 280.88" stroke="#543434" stroke-width="0.3702" stroke-miterlimit="10"/>
<path d="M73.2594 840.56C73.2594 840.56 -45.7003 429.592 297.518 461.131C327.117 463.788 352.924 464.237 375.863 462.468C605.493 444.559 494.514 181.017 779.472 100.535C1114.79 6.83954 1233.77 263.812 1260.59 286.443" stroke="#543434" stroke-width="0.3702" stroke-miterlimit="10"/>
<path d="M77.9608 839.574C77.9608 839.574 -40.8089 433.059 300.172 463.726C329.311 466.387 354.889 466.838 377.829 465.07C605.815 447.847 499.425 188.506 779.729 108.958C1109.23 16.429 1227.44 266.925 1257.12 291.999" stroke="#543434" stroke-width="0.3702" stroke-miterlimit="10"/>
<path d="M82.8808 838.818C82.8808 838.818 -35.4547 436.531 303.274 466.549C332.197 468.988 357.546 469.441 380.243 467.899C606.585 451.363 505.017 196.222 780.448 117.385C1103.9 26.0257 1221.35 270.044 1254.09 297.783" stroke="#543434" stroke-width="0.3702" stroke-miterlimit="10"/>
<path d="M87.5731 838.055C87.5731 838.055 -30.3418 440.221 305.919 469.367C334.382 471.81 359.501 472.265 382.199 470.723C606.898 454.875 509.715 203.489 780.927 126.03C1098.13 35.3927 1215 273.604 1250.83 303.785" stroke="#543434" stroke-width="0.3702" stroke-miterlimit="10"/>
<path d="M92.2598 837.296C92.2598 837.296 -25.4647 443.917 308.788 472.187C337.021 474.633 361.911 475.09 384.379 473.551C607.434 458.389 514.843 211.207 781.412 134.457C1092.8 44.7629 1208.66 276.721 1247.34 309.57" stroke="#543434" stroke-width="0.3702" stroke-miterlimit="10"/>
<path d="M97.1802 836.538C97.1802 836.538 -20.1234 447.613 311.673 474.787C339.459 477.013 364.119 477.472 386.576 476.157C607.756 461.685 520.218 218.702 781.899 142.888C1087.24 54.3627 1202.32 280.066 1244.1 315.133" stroke="#543434" stroke-width="0.3702" stroke-miterlimit="10"/>
<path d="M101.87 835.777C101.87 835.777 -14.9994 451.081 314.314 477.608C341.871 479.837 366.302 480.298 388.528 478.985C608.065 465.2 525.119 226.42 782.157 151.315C1081.44 63.9598 1195.99 283.181 1240.62 320.917" stroke="#543434" stroke-width="0.3702" stroke-miterlimit="10"/>
<path d="M106.794 835.016C106.794 835.016 -9.65631 454.77 317.421 480.424C344.518 482.657 368.732 482.896 390.947 481.807C608.84 468.71 530.486 234.132 783.1 159.958C1076.33 73.7716 1190.1 286.738 1237.82 326.918" stroke="#543434" stroke-width="0.3702" stroke-miterlimit="10"/>
<path d="M111.482 834.254C111.482 834.254 -4.77772 458.464 320.061 483.244C346.942 485.255 370.913 485.72 392.898 484.633C609.148 472.224 535.386 241.85 783.357 168.385C1070.54 83.3681 1183.54 289.853 1234.34 332.701" stroke="#543434" stroke-width="0.3702" stroke-miterlimit="10"/>
<path d="M116.403 833.494C116.403 833.494 0.564292 462.159 323.176 485.841C349.597 487.855 373.338 488.323 395.338 487.012C609.956 475.066 541.005 249.12 784.086 176.591C1065.23 92.5195 1177.45 292.746 1231.09 338.264" stroke="#543434" stroke-width="0.3702" stroke-miterlimit="10"/>
<path d="M121.092 832.732C121.092 832.732 5.68684 465.626 325.816 488.661C351.789 490.455 375.532 490.923 397.289 489.839C610.237 479.029 545.907 256.839 784.343 185.02C1059.66 102.115 1171.1 296.084 1227.62 343.824" stroke="#543434" stroke-width="0.3702" stroke-miterlimit="10"/>
<path d="M126.014 831.974C126.014 831.974 10.7978 469.322 328.921 491.481C354.665 493.278 377.947 493.75 399.705 492.666C611.01 482.544 551.274 264.557 785.297 193.445C1054.56 111.71 1165.24 299.197 1224.84 349.607" stroke="#543434" stroke-width="0.3702" stroke-miterlimit="10"/>
<path d="M130.703 831.209C130.703 831.209 15.9066 473.009 331.561 494.296C356.844 496.098 380.128 496.57 401.425 495.49C611.086 486.056 555.944 272.275 785.309 202.096C1048.52 121.53 1158.42 302.758 1221.11 355.614" stroke="#543434" stroke-width="0.3702" stroke-miterlimit="10"/>
<path d="M135.625 830.447C135.625 830.447 21.2486 476.702 334.664 497.115C359.731 498.694 382.554 499.171 403.84 498.315C611.857 489.569 561.541 279.992 786.03 210.525C1043.18 131.129 1152.31 305.872 1217.86 361.4" stroke="#543434" stroke-width="0.3702" stroke-miterlimit="10"/>
<path d="M140.315 829.684C140.315 829.684 26.1272 480.393 337.318 499.708C361.925 501.292 384.749 501.769 405.805 500.914C612.179 492.857 566.459 287.485 786.52 218.95C1037.62 140.723 1145.98 308.981 1214.62 366.957" stroke="#543434" stroke-width="0.3702" stroke-miterlimit="10"/>
<path d="M145.237 828.924C145.237 828.924 31.4689 484.086 340.422 502.527C364.812 503.889 387.163 504.594 408.22 503.74C612.951 496.372 571.826 295.205 787.241 227.379C1032.51 150.32 1140.1 312.317 1211.6 372.742" stroke="#543434" stroke-width="0.3702" stroke-miterlimit="10"/>
<path d="M149.925 828.159C149.925 828.159 36.5769 487.773 343.061 505.343C366.991 506.708 389.357 507.19 410.171 506.562C613.258 499.883 576.73 302.922 787.486 236.029C1026.7 160.14 1133.52 315.651 1208.1 378.749" stroke="#543434" stroke-width="0.3702" stroke-miterlimit="10"/>
<path d="M154.847 827.397C154.847 827.397 41.687 491.467 346.163 508.161C369.864 509.529 391.769 510.014 412.585 509.387C614.028 503.396 582.328 310.641 788.206 244.459C1021.38 169.515 1127.4 318.987 1204.85 384.536" stroke="#543434" stroke-width="0.3702" stroke-miterlimit="10"/>
<path d="M159.536 826.635C159.536 826.635 46.795 495.158 348.803 510.979C372.056 512.127 393.963 512.613 414.536 512.212C614.336 506.91 587.234 318.361 788.683 253.111C1015.8 179.336 1121.06 322.321 1201.6 390.32" stroke="#543434" stroke-width="0.3702" stroke-miterlimit="10"/>
<path d="M164.224 825.873C164.224 825.873 51.9028 498.85 351.685 513.573C374.709 514.723 396.155 515.213 416.729 514.813C614.885 510.2 592.381 325.859 789.182 261.319C1010.47 188.711 1114.95 325.432 1198.36 395.883" stroke="#543434" stroke-width="0.3702" stroke-miterlimit="10"/>
<path d="M169.145 825.108C169.145 825.108 57.0123 502.539 354.557 516.387C377.121 517.542 398.568 518.032 418.912 517.634C615.425 513.71 597.751 333.576 789.661 269.97C1004.89 198.532 1108.6 328.764 1195.09 401.89" stroke="#543434" stroke-width="0.3702" stroke-miterlimit="10"/>
<path d="M173.834 824.348C173.834 824.348 62.1207 506.234 357.427 519.208C379.773 520.14 400.76 520.635 421.106 520.237C615.757 516.78 602.9 341.078 790.161 278.182C999.327 207.914 1102.27 331.653 1191.85 407.456" stroke="#543434" stroke-width="0.3702" stroke-miterlimit="10"/>
<path d="M178.766 823.363C178.766 823.363 67.4715 509.704 360.308 521.805C382.194 522.742 403.182 523.236 423.298 522.84C616.305 520.073 608.049 348.58 790.891 286.392C993.998 217.294 1096.16 334.766 1188.62 412.798" stroke="#543434" stroke-width="0.3702" stroke-miterlimit="10"/>
<path d="M183.456 822.598C183.456 822.598 72.3494 513.394 363.192 524.394C384.848 525.333 405.376 525.832 425.493 525.436C616.909 522.46 613.201 356.076 791.381 294.821C988.427 226.892 1089.83 337.872 1185.37 418.583" stroke="#543434" stroke-width="0.3702" stroke-miterlimit="10"/>
<path d="M188.377 821.833C188.377 821.833 77.6894 517.083 366.062 527.211C387.271 527.93 407.8 528.429 427.674 528.26C617.446 525.974 618.571 363.798 791.87 303.254C983.085 236.494 1083.71 341.204 1182.11 424.371" stroke="#543434" stroke-width="0.3702" stroke-miterlimit="10"/>
<path d="M193.064 821.07C193.064 821.07 82.5637 520.774 368.931 530.026C389.91 530.747 409.978 531.25 429.854 531.082C617.931 530.385 623.697 371.745 792.346 311.91C977.5 246.319 1077.35 344.535 1178.85 430.382" stroke="#543434" stroke-width="0.3702" stroke-miterlimit="10"/>
<path d="M197.986 820.304C197.986 820.304 87.9046 524.464 371.802 532.843C392.333 533.343 412.402 533.847 432.036 533.905C618.468 533.899 628.838 379.471 793.067 320.343C972.158 255.922 1071.24 347.641 1175.6 436.171" stroke="#543434" stroke-width="0.3702" stroke-miterlimit="10"/>
<path d="M202.674 819.539C202.674 819.539 93.0101 528.152 374.438 535.658C394.74 536.161 414.349 536.669 433.983 536.728C618.773 537.412 633.746 387.196 793.31 329.001C966.338 265.75 1064.64 351.197 1172.11 441.96" stroke="#543434" stroke-width="0.3702" stroke-miterlimit="10"/>
<path d="M207.596 818.773C207.596 818.773 98.1074 532.069 377.553 538.249C397.394 538.755 417.004 539.264 436.409 539.325C619.554 540.7 639.363 394.696 794.044 337.212C961.239 275.129 1058.54 354.079 1169.1 447.524" stroke="#543434" stroke-width="0.3702" stroke-miterlimit="10"/>
<path d="M212.284 818.008C212.284 818.008 103.213 535.758 380.19 541.065C399.815 541.349 418.964 541.862 438.357 542.148C619.872 543.989 644.273 402.423 794.289 345.873C955.418 284.96 1052.17 357.633 1165.6 453.539" stroke="#543434" stroke-width="0.3702" stroke-miterlimit="10"/>
<path d="M217.205 817.247C217.205 817.247 108.552 539.451 383.291 543.883C402.454 544.171 421.605 544.684 440.768 544.972C620.64 547.505 649.634 410.378 795.241 354.31C950.305 294.567 1046.29 360.74 1162.81 459.331" stroke="#543434" stroke-width="0.3702" stroke-miterlimit="10"/>
<path d="M221.893 816.474C221.893 816.474 113.414 543.359 385.927 546.691C404.861 546.982 423.564 547.274 442.716 547.788C620.957 550.787 654.776 418.099 795.486 362.966C944.471 304.617 1039.69 364.288 1159.1 465.118" stroke="#543434" stroke-width="0.3702" stroke-miterlimit="10"/>
<path d="M226.814 815.712C226.814 815.712 118.753 547.053 389.027 549.509C407.513 549.579 426.204 550.097 445.127 550.613C621.737 554.079 660.15 425.832 796.205 371.408C939.355 314.227 1033.57 367.395 1156.07 470.912" stroke="#543434" stroke-width="0.3702" stroke-miterlimit="10"/>
<path d="M231.503 814.945C231.503 814.945 123.848 550.97 391.677 552.102C409.701 552.176 428.176 552.472 447.099 552.988C622.064 557.146 665.086 433.117 796.473 379.627C933.554 323.617 1027.23 370.277 1152.59 476.483" stroke="#543434" stroke-width="0.3702" stroke-miterlimit="10"/>
<path d="M236.424 814.185C236.424 814.185 128.956 554.666 394.777 554.922C412.572 554.998 430.585 555.297 449.51 555.814C622.832 560.664 670.681 441.076 797.426 388.07C928.438 333.23 1021.34 373.608 1149.8 482.279" stroke="#543434" stroke-width="0.3702" stroke-miterlimit="10"/>
<path d="M241.111 813.416C241.111 813.416 134.048 558.581 397.41 557.737C414.757 557.592 432.759 558.117 451.454 558.636C622.9 564.181 675.591 448.811 797.679 396.514C922.839 343.067 1014.75 376.713 1146.09 487.851" stroke="#543434" stroke-width="0.3702" stroke-miterlimit="10"/>
<path d="M245.799 812.649C245.799 812.649 139.284 560.019 400.277 560.55C417.381 560.633 434.948 560.712 453.632 561.456C623.434 567.693 680.723 456.769 798.155 405.18C917.245 352.902 1008.37 380.264 1142.82 493.869" stroke="#543434" stroke-width="0.3702" stroke-miterlimit="10"/>
<path d="M250.719 811.882C250.719 811.882 144.366 564.166 403.157 563.145C419.812 563.007 437.367 563.311 455.59 564.06C623.746 570.99 685.878 464.286 798.42 413.408C911.67 362.3 1001.79 383.15 1139.34 499.447" stroke="#543434" stroke-width="0.3702" stroke-miterlimit="10"/>
<path d="M255.408 811.117C255.408 811.117 149.341 570.106 406.024 565.959C422.462 565.598 439.556 565.906 457.768 566.881C624.28 574.504 691.013 472.247 799.129 422.076C906.294 372.362 995.878 386.697 1136.3 505.467" stroke="#543434" stroke-width="0.3702" stroke-miterlimit="10"/>
<path d="M260.327 810.351C260.327 810.351 154.667 574.027 408.889 568.779C424.867 568.423 441.962 568.732 459.943 569.708C624.81 578.025 696.388 479.991 799.613 430.53C900.704 381.987 989.517 389.806 1132.82 511.047" stroke="#543434" stroke-width="0.3702" stroke-miterlimit="10"/>
<path d="M265.016 809.583C265.016 809.583 159.502 578.395 411.755 571.593C427.503 571.238 444.137 571.551 462.12 572.529C625.342 581.539 701.522 487.955 800.088 439.202C895.324 392.053 983.147 393.131 1129.55 517.07" stroke="#543434" stroke-width="0.3702" stroke-miterlimit="10"/>
<path d="M269.936 808.815C269.936 808.815 164.841 582.089 414.622 574.411C429.907 574.06 446.555 574.149 464.296 575.354C625.873 585.059 706.874 496.15 800.575 447.657C889.954 401.901 976.773 396.461 1126.29 522.873" stroke="#543434" stroke-width="0.3702" stroke-miterlimit="10"/>
<path d="M274.633 807.834C274.633 807.834 156.759 557.76 466.492 577.74C776.226 597.72 807.894 261.542 1123.05 528.238" stroke="#543434" stroke-width="0.3702" stroke-miterlimit="10"/>
</svg>
