<svg width="56" height="48" viewBox="0 0 56 48" fill="none" xmlns="http://www.w3.org/2000/svg">
<path d="M31.7129 22.0751C30.5031 19.7588 29.8906 17.1086 29.944 14.422C29.8751 12.4939 30.1648 10.571 30.7943 8.77638C31.4239 6.98175 32.3795 5.35505 33.5998 4.0006C34.8462 2.66567 36.3171 1.62492 37.9259 0.939602C39.5348 0.25428 41.249 -0.0617523 42.9679 0.0100327C44.6865 -0.0619469 46.4006 0.254002 48.0091 0.939339C49.6176 1.62468 51.0882 2.66554 52.3341 4.0006C53.5549 5.35473 54.5107 6.98135 55.1403 8.77605C55.7699 10.5708 56.0593 12.4939 55.9899 14.422C55.9865 16.4195 55.7568 18.4083 55.3064 20.3403C54.4918 23.3468 53.4595 26.2729 52.2198 29.0892L46.6126 43.5954C45.5866 46.2498 43.0337 48 40.1879 48C35.6903 48 32.3992 43.7597 33.5153 39.4027L34.9156 33.9359C35.9492 29.901 33.6879 25.7423 31.7129 22.0751ZM1.78744 22.0751C1.78449 22.0751 1.78179 22.0734 1.78042 22.0708C0.570053 19.7563 -0.0430946 17.1075 0.00994492 14.422C-0.0584526 12.494 0.231392 10.5712 0.86092 8.77664C1.49045 6.98209 2.44579 5.35537 3.66578 4.0006C4.91237 2.66597 6.38329 1.62543 7.99206 0.940125C9.60083 0.254826 11.315 -0.0613899 13.0339 0.0100327C14.7531 -0.0619202 16.4677 0.254017 18.0768 0.939339C19.686 1.62466 21.1572 2.66551 22.4038 4.0006C23.6242 5.35505 24.5798 6.98175 25.2094 8.77638C25.8389 10.571 26.1285 12.4939 26.0597 14.422C26.0569 16.4198 25.8258 18.4089 25.3723 20.3403C24.5603 23.3472 23.5293 26.2735 22.2896 29.0892L16.6778 43.5998C15.6522 46.2517 13.1015 48 10.2582 48C5.7617 48 2.47269 43.7589 3.59187 39.4039L5.7509 31.0026C6.34586 28.6874 5.14895 26.33 3.54187 24.5604C2.87263 23.8236 2.28457 22.9909 1.79442 22.0793C1.79304 22.0767 1.79036 22.0751 1.78744 22.0751Z" fill="#543434"/>
</svg>
