<svg width="55" height="86" viewBox="0 0 55 86" fill="none" xmlns="http://www.w3.org/2000/svg">
<path d="M27.1174 84.9999C27.1174 85.5522 27.5651 85.9999 28.1174 85.9999C28.6696 85.9999 29.1174 85.5522 29.1174 84.9999L27.1174 84.9999ZM28.8245 23.0756C28.4339 22.6851 27.8008 22.6851 27.4103 23.0756L21.0463 29.4396C20.6558 29.8301 20.6558 30.4633 21.0463 30.8538C21.4368 31.2443 22.07 31.2443 22.4605 30.8538L28.1174 25.197L33.7742 30.8538C34.1647 31.2443 34.7979 31.2443 35.1884 30.8538C35.579 30.4633 35.579 29.8301 35.1884 29.4396L28.8245 23.0756ZM29.1174 84.9999L29.1174 23.7828L27.1174 23.7828L27.1174 84.9999L29.1174 84.9999Z" fill="white"/>
<path d="M54 27C54 41.3422 42.1529 53 27.5 53C12.8471 53 1 41.3422 1 27C1 12.6578 12.8471 1 27.5 1C42.1529 1 54 12.6578 54 27Z" stroke="white" stroke-width="2"/>
</svg>
