<svg width="682" height="1650" viewBox="0 0 682 1650" fill="none" xmlns="http://www.w3.org/2000/svg">
<path d="M-157.655 33.3089C-157.655 33.3089 316.934 3.35439 164.482 398.795C11.9589 794.494 424.681 633.464 404.713 1055.49C383.08 1513.02 39.0699 1579.01 39.0699 1579.01" stroke="#E9D2CB" stroke-width="0.3702" stroke-miterlimit="10"/>
<path d="M-158.522 38.9065C-158.522 38.9065 311.371 8.3068 160.694 401.514C147.112 436.611 138.207 467.321 132.845 494.403C78.8765 769.862 413.694 674.978 396.091 1053.88C375.233 1504.4 37.6884 1571.31 34.215 1573.85" stroke="#E9D2CB" stroke-width="0.3702" stroke-miterlimit="10"/>
<path d="M-159.32 44.2477C-159.32 44.2477 306.091 13.07 157.048 403.719C143.82 438.369 134.773 468.755 129.411 495.837C75.3003 769.294 404.51 678.783 387.753 1052.08C367.597 1495.84 36.447 1563.1 29.8554 1568.56" stroke="#E9D2CB" stroke-width="0.3702" stroke-miterlimit="10"/>
<path d="M-160.186 49.8456C-160.186 49.8456 300.813 17.833 153.262 406.438C140.105 440.831 131.342 471.027 125.838 497.784C71.5851 769.239 395.256 682.845 379.062 1050.73C359.893 1487.53 35.2797 1555.47 25.1445 1563.71" stroke="#E9D2CB" stroke-width="0.3702" stroke-miterlimit="10"/>
<path d="M-160.984 55.1861C-160.984 55.1861 295.533 22.5957 149.829 408.71C137.026 442.656 128.121 472.527 122.618 499.285C68.2223 768.738 386.356 686.46 370.867 1049.26C352.259 1478.98 34.1808 1547.58 20.5727 1558.36" stroke="#E9D2CB" stroke-width="0.3702" stroke-miterlimit="10"/>
<path d="M-161.851 60.7829C-161.851 60.7829 290.183 27.6145 146.041 411.427C133.31 445.116 124.476 474.731 119.043 501.231C64.5058 768.682 377.031 690.778 362.175 1047.91C344.341 1470.6 32.5861 1539.81 15.6476 1553.45" stroke="#E9D2CB" stroke-width="0.3702" stroke-miterlimit="10"/>
<path d="M-162.648 66.1243C-162.648 66.1243 284.975 32.1211 142.396 413.632C129.806 446.807 121.256 476.232 115.823 502.732C61.3568 768.249 367.92 694.327 354.052 1046.19C336.921 1462.11 31.7008 1531.99 11.5028 1548.23" stroke="#E9D2CB" stroke-width="0.3702" stroke-miterlimit="10"/>
<path d="M-163.515 71.7213C-163.515 71.7213 280.264 37.3423 138.609 416.35C126.303 449.336 117.611 478.436 112.249 504.679C57.6404 768.194 358.666 698.388 345.573 1044.9C329.003 1453.74 30.3189 1524.29 6.79091 1543.38" stroke="#E9D2CB" stroke-width="0.3702" stroke-miterlimit="10"/>
<path d="M-164.313 77.0631C-164.313 77.0631 275.196 42.1735 134.962 418.556C122.798 451.027 114.389 479.938 108.815 506.113C54.0644 767.626 349.482 702.194 336.952 1043.3C321.368 1445.18 29.0068 1516.33 1.93617 1538.22" stroke="#E9D2CB" stroke-width="0.3702" stroke-miterlimit="10"/>
<path d="M-165.179 82.6603C-165.179 82.6603 269.848 47.1929 131.389 421.341C119.509 453.623 110.959 482.209 105.455 508.128C50.5627 767.638 340.444 706.323 328.689 1042.08C313.879 1436.95 27.8389 1508.7 -2.49067 1533.18" stroke="#E9D2CB" stroke-width="0.3702" stroke-miterlimit="10"/>
<path d="M-165.763 88.0694C-165.763 88.0694 264.852 51.7669 127.956 423.614C116.217 455.381 107.738 483.71 102.235 509.629C47.2002 767.138 331.545 709.939 320.352 1040.29C306.245 1428.39 26.7399 1500.81 -6.84827 1527.89" stroke="#E9D2CB" stroke-width="0.3702" stroke-miterlimit="10"/>
<path d="M-166.63 93.6661C-166.63 93.6661 259.715 56.853 124.169 426.332C112.715 457.909 104.306 485.981 98.6609 511.575C43.4845 767.082 322.222 714.257 311.875 1039C298.542 1420.09 25.5712 1493.18 -11.559 1523.05" stroke="#E9D2CB" stroke-width="0.3702" stroke-miterlimit="10"/>
<path d="M-167.428 99.0074C-167.428 99.0074 254.435 61.6164 120.522 428.537C109.209 459.6 100.872 487.415 95.2268 513.009C39.9087 766.514 313.606 717.683 303.255 1037.4C291.191 1411.34 24.0458 1485.15 -16.4132 1517.88" stroke="#E9D2CB" stroke-width="0.3702" stroke-miterlimit="10"/>
<path d="M-168.227 104.348C-168.227 104.348 249.225 66.1216 116.804 430.998C105.563 461.804 97.296 489.362 91.7219 514.699C36.2619 766.202 304.424 721.488 294.847 1035.86C283.699 1403.1 22.9454 1477.26 -20.9844 1512.53" stroke="#E9D2CB" stroke-width="0.3702" stroke-miterlimit="10"/>
<path d="M-169.095 109.945C-169.095 109.945 243.875 71.1413 113.3 433.526C102.413 463.886 94.2178 491.187 88.431 516.456C32.8999 765.701 295.385 725.617 286.442 1034.32C276.066 1394.54 21.6335 1469.31 -25.4117 1507.49" stroke="#E9D2CB" stroke-width="0.3702" stroke-miterlimit="10"/>
<path d="M-169.893 115.287C-169.893 115.287 238.808 75.9725 109.653 435.732C98.8373 465.835 90.7127 492.878 84.9968 517.891C29.3239 765.133 286.274 729.166 278.105 1032.53C268.503 1385.73 20.5332 1461.42 -29.9823 1502.14" stroke="#E9D2CB" stroke-width="0.3702" stroke-miterlimit="10"/>
<path d="M-170.761 120.884C-170.761 120.884 233.456 80.9911 105.865 438.449C95.1908 468.038 87.3499 494.892 81.4215 519.837C25.6073 765.077 277.021 733.226 269.344 1031.43C260.516 1377.61 18.8666 1453.91 -34.9765 1497.48" stroke="#E9D2CB" stroke-width="0.3702" stroke-miterlimit="10"/>
<path d="M-171.561 126.225C-171.561 126.225 228.246 85.4978 102.217 440.655C91.8267 470.054 83.844 496.583 77.9864 521.271C22.0306 764.51 267.909 736.775 261.007 1029.64C252.952 1368.8 17.8359 1445.76 -39.5475 1492.13" stroke="#E9D2CB" stroke-width="0.3702" stroke-miterlimit="10"/>
<path d="M-172.427 131.822C-172.427 131.822 222.899 90.5169 98.645 443.44C88.3963 472.325 80.4845 498.597 74.84 523.353C18.9553 764.657 259.017 741.228 252.747 1028.42C245.678 1360.63 16.8807 1438.2 -43.9723 1487.09" stroke="#E9D2CB" stroke-width="0.3702" stroke-miterlimit="10"/>
<path d="M-173.226 137.163C-173.226 137.163 217.831 95.3467 94.9971 445.644C85.1029 474.082 77.1915 500.355 71.405 524.785C14.9533 763.953 249.906 744.776 244.411 1026.63C238.044 1352.07 15.5666 1430.24 -48.33 1481.81" stroke="#E9D2CB" stroke-width="0.3702" stroke-miterlimit="10"/>
<path d="M-174.094 142.76C-174.094 142.76 212.55 100.109 91.2092 448.362C81.386 476.544 73.6162 502.302 67.8301 526.733C11.237 763.898 240.655 748.837 235.864 1025.6C230.27 1344.02 14.3252 1422.86 -53.1106 1477.22" stroke="#E9D2CB" stroke-width="0.3702" stroke-miterlimit="10"/>
<path d="M-174.895 148.102C-174.895 148.102 207.267 104.873 87.5594 450.568C77.8779 478.235 70.1085 503.993 64.4638 527.91C7.72951 763.073 231.613 752.129 227.385 1023.48C222.564 1334.88 12.9376 1414.33 -57.8245 1471.54" stroke="#E9D2CB" stroke-width="0.3702" stroke-miterlimit="10"/>
<path d="M-175.764 153.699C-175.764 153.699 201.917 109.892 83.7714 453.286C74.3737 480.763 66.7458 506.007 60.8887 529.856C4.01305 763.018 222.293 756.447 218.909 1022.2C214.861 1326.58 11.7663 1406.69 -62.464 1466.44" stroke="#E9D2CB" stroke-width="0.3702" stroke-miterlimit="10"/>
<path d="M-176.563 159.04C-176.563 159.04 196.706 114.398 80.3364 455.557C71.0803 482.521 63.4528 507.765 57.6666 531.357C0.649835 762.517 213.396 760.062 210.504 1020.66C207.228 1318.02 10.6647 1398.8 -66.8911 1461.41" stroke="#E9D2CB" stroke-width="0.3702" stroke-miterlimit="10"/>
<path d="M-177.432 164.637C-177.432 164.637 191.355 119.417 76.5483 458.276C67.5761 485.049 59.8774 509.712 54.0915 533.304C-3.06634 762.462 204.146 764.124 202.029 1019.38C199.456 1309.97 9.21006 1391.36 -71.6003 1456.56" stroke="#E9D2CB" stroke-width="0.3702" stroke-miterlimit="10"/>
<path d="M-178.232 169.979C-178.232 169.979 186.073 124.18 72.8991 460.481C64.0685 486.74 56.5829 511.47 50.6552 534.738C-6.64355 761.894 195.036 767.672 193.48 1017.52C191.68 1301.09 7.96476 1383.15 -76.3831 1451.14" stroke="#E9D2CB" stroke-width="0.3702" stroke-miterlimit="10"/>
<path d="M-179.102 175.577C-179.102 175.577 180.793 128.943 69.1108 463.199C60.3512 489.202 53.0072 513.417 47.0798 536.685C-10.36 761.839 185.716 771.991 185.006 1016.24C184.191 1292.86 6.58002 1375.45 -81.0219 1446.04" stroke="#E9D2CB" stroke-width="0.3702" stroke-miterlimit="10"/>
<path d="M-179.903 180.917C-179.903 180.917 175.509 133.706 65.4608 465.403C57.0556 490.959 49.712 515.175 43.6428 538.118C-13.9377 761.271 176.606 775.539 176.386 1014.63C176.344 1284.23 5.26327 1367.49 -85.6625 1440.94" stroke="#E9D2CB" stroke-width="0.3702" stroke-miterlimit="10"/>
<path d="M-180.7 186.258C-180.7 186.258 170.23 138.468 61.9571 467.932C53.6228 493.23 46.4208 516.932 40.3519 539.875C-17.3695 761.026 167.643 779.41 168.197 1013.16C168.856 1275.99 4.09225 1359.86 -90.0868 1435.91" stroke="#E9D2CB" stroke-width="0.3702" stroke-miterlimit="10"/>
<path d="M-181.572 191.855C-181.572 191.855 164.947 143.23 58.2367 470.393C50.0441 495.177 42.8425 518.879 36.8446 541.565C-21.0175 760.714 158.392 783.472 159.579 1011.55C161.01 1267.37 2.77537 1351.9 -94.9396 1430.74" stroke="#E9D2CB" stroke-width="0.3702" stroke-miterlimit="10"/>
<path d="M-182.371 197.196C-182.371 197.196 159.668 147.993 54.5192 472.855C46.6104 497.45 39.5503 520.637 33.5527 543.323C-24.1669 760.281 149.429 787.344 151.389 1010.08C153.593 1258.88 1.88635 1344.08 -99.3644 1425.71" stroke="#E9D2CB" stroke-width="0.3702" stroke-miterlimit="10"/>
<path d="M-183.026 202.861C-183.026 202.861 154.531 153.08 51.0156 475.383C43.2483 499.464 36.1887 522.652 30.262 545.08C-27.5982 760.036 140.466 791.216 143.131 1008.87C146.107 1250.64 0.715091 1336.44 -103.575 1420.74" stroke="#E9D2CB" stroke-width="0.3702" stroke-miterlimit="10"/>
<path d="M-183.827 208.202C-183.827 208.202 149.319 157.586 47.5087 477.912C39.8125 501.736 32.8944 524.409 26.9681 546.838C-30.1819 760.062 131.502 795.088 134.727 1007.33C138.475 1242.08 -0.38881 1328.56 -108.213 1415.64" stroke="#E9D2CB" stroke-width="0.3702" stroke-miterlimit="10"/>
<path d="M-184.697 213.8C-184.697 213.8 143.968 162.606 43.7906 480.374C36.4485 503.751 29.5309 526.424 23.4628 548.529C-33.8276 759.751 122.255 799.151 126.325 1005.79C130.775 1233.78 -1.77486 1320.86 -112.851 1410.54" stroke="#E9D2CB" stroke-width="0.3702" stroke-miterlimit="10"/>
<path d="M-185.498 219.14C-185.498 219.14 138.755 167.11 40.0699 482.834C32.7989 505.954 26.0228 528.113 19.9551 550.218C-38.3261 759.168 112.865 802.887 117.709 1004.18C122.93 1225.15 -3.09262 1312.9 -117.702 1405.38" stroke="#E9D2CB" stroke-width="0.3702" stroke-miterlimit="10"/>
<path d="M-186.37 224.738C-186.37 224.738 133.403 172.13 36.3507 485.296C29.434 507.969 22.6582 530.128 16.4489 551.908C-41.9726 758.857 103.689 806.692 109.236 1002.9C115.23 1216.85 -4.26728 1305.27 -122.339 1400.28" stroke="#E9D2CB" stroke-width="0.3702" stroke-miterlimit="10"/>
<path d="M-187.172 230.078C-187.172 230.078 128.119 176.892 32.6997 487.5C25.8539 509.916 19.2198 531.561 13.0109 553.341C-45.5507 758.288 94.5824 810.239 100.69 1001.04C107.455 1207.97 -5.72851 1296.98 -126.908 1394.92" stroke="#E9D2CB" stroke-width="0.3702" stroke-miterlimit="10"/>
<path d="M-188.041 235.677C-188.041 235.677 122.628 181.588 29.1256 490.286C22.4213 512.188 15.7876 533.833 9.64965 555.356C-49.0522 758.301 85.4824 814.626 92.4344 999.823C99.9002 1199.99 -6.68814 1289.42 -131.4 1390.15" stroke="#E9D2CB" stroke-width="0.3702" stroke-miterlimit="10"/>
<path d="M-188.844 241.018C-188.844 241.018 117.344 186.351 25.4747 492.491C19.0541 514.203 12.5619 535.334 6.21181 556.789C-52.4172 757.801 76.3768 818.174 83.8896 997.96C92.1268 1191.11 -8.22001 1281.39 -136.18 1384.72" stroke="#E9D2CB" stroke-width="0.3702" stroke-miterlimit="10"/>
<path d="M-189.715 246.614C-189.715 246.614 111.993 191.369 21.6853 495.207C15.4062 516.406 8.91453 537.537 2.63543 558.735C-56.1334 757.744 66.9207 822.167 75.3488 996.934C84.3573 1183.06 -9.4655 1274.02 -140.956 1380.13" stroke="#E9D2CB" stroke-width="0.3702" stroke-miterlimit="10"/>
<path d="M-190.518 251.956C-190.518 251.956 106.566 195.808 18.0339 497.412C11.8258 518.354 5.68821 539.038 -0.803003 560.169C-59.4989 757.244 57.7452 825.972 66.8044 995.072C76.3715 1174.11 -10.9278 1265.74 -145.453 1374.52" stroke="#E9D2CB" stroke-width="0.3702" stroke-miterlimit="10"/>
<path d="M-191.389 257.553C-191.389 257.553 101.216 200.827 14.2452 500.13C8.39117 520.625 2.04149 541.242 -4.37873 562.116C-63.0018 757.257 48.5038 830.034 58.336 993.79C68.6036 1166.07 -12.1025 1258.1 -150.158 1369.68" stroke="#E9D2CB" stroke-width="0.3702" stroke-miterlimit="10"/>
<path d="M-192.19 262.894C-192.19 262.894 95.7234 205.523 10.8103 502.403C5.09767 522.383 -0.968489 542.81 -7.38826 563.684C-66.1513 756.823 39.8292 833.717 50.2218 992.063C61.2602 1157.32 -12.9947 1250.28 -154.51 1364.39" stroke="#E9D2CB" stroke-width="0.3702" stroke-miterlimit="10"/>
<path d="M-193.061 268.492C-193.061 268.492 90.4418 210.286 7.02025 505.121C1.37863 524.844 -4.54603 544.757 -10.9653 565.631C-69.8678 756.769 30.3046 837.969 41.6825 991.039C53.4917 1149.27 -14.4542 1242.84 -159.285 1359.81" stroke="#E9D2CB" stroke-width="0.3702" stroke-miterlimit="10"/>
<path d="M-193.864 273.832C-193.864 273.832 84.9481 214.981 3.3712 507.325C-1.91644 526.601 -8.05322 546.447 -14.4015 567.064C-73.3731 755.943 21.2047 841.516 33.3552 989.243C45.6519 1140.65 -15.4904 1234.69 -163.567 1354.26" stroke="#E9D2CB" stroke-width="0.3702" stroke-miterlimit="10"/>
<path d="M-194.666 279.173C-194.666 279.173 81.7911 220.417 -0.348942 509.786C-5.77816 528.738 -11.3484 548.205 -17.9086 568.754C-77.0194 755.631 11.822 845.254 24.7451 987.637C37.8122 1132.02 -17.0224 1226.67 -168.413 1349.09" stroke="#E9D2CB" stroke-width="0.3702" stroke-miterlimit="10"/>
<path d="M-195.537 284.771C-195.537 284.771 76.0879 225.045 -3.85347 512.315C-8.92878 530.821 -14.7111 550.22 -21.1299 570.255C-80.3805 755.131 2.86795 849.127 16.6338 985.91C30.4008 1123.53 -17.8444 1218.59 -172.763 1343.8" stroke="#E9D2CB" stroke-width="0.3702" stroke-miterlimit="10"/>
<path d="M-196.339 290.112C-196.339 290.112 68.6806 229.134 -7.57356 514.777C-12.3654 533.092 -18.0062 551.977 -24.637 571.945C-84.0264 754.82 -6.51309 852.864 7.95451 984.562C22.2791 1115.1 -19.5177 1211.08 -177.679 1338.9" stroke="#E9D2CB" stroke-width="0.3702" stroke-miterlimit="10"/>
<path d="M-197.211 295.709C-197.211 295.709 63.1189 234.086 -11.2913 517.237C-15.9418 535.039 -21.5822 553.924 -28.1419 573.635C-87.6709 754.508 -15.7493 856.926 -0.439166 983.023C14.6553 1106.54 -20.6238 1203.19 -182.029 1333.61" stroke="#E9D2CB" stroke-width="0.3702" stroke-miterlimit="10"/>
<path d="M-198.014 301.051C-198.014 301.051 57.2705 238.391 -15.0111 519.7C-19.5907 537.244 -25.0895 555.615 -31.6487 575.326C-91.3165 754.197 -25.1284 860.665 -9.04637 981.419C6.53494 1098.1 -21.9441 1195.23 -186.874 1328.44" stroke="#E9D2CB" stroke-width="0.3702" stroke-miterlimit="10"/>
<path d="M-198.886 306.648C-198.886 306.648 51.9214 243.409 -18.7288 522.16C-23.167 539.191 -28.453 557.629 -35.1536 577.015C-94.9605 753.885 -34.7878 864.592 -17.4387 979.88C-1.37067 1089.73 -23.263 1187.27 -191.505 1323.34" stroke="#E9D2CB" stroke-width="0.3702" stroke-miterlimit="10"/>
<path d="M-199.473 312.057C-199.473 312.057 77.7115 240.143 -38.2306 578.841C-154.173 917.539 159.068 1031.65 -195.708 1318.38" stroke="#E9D2CB" stroke-width="0.3702" stroke-miterlimit="10"/>
</svg>
