<svg width="91" height="80" viewBox="0 0 91 80" fill="none" xmlns="http://www.w3.org/2000/svg">
<path d="M77.2025 34.3179C76.0773 33.0802 74.5021 32.4051 72.9269 32.4051H58.8622V22.7285C58.8622 19.5781 56.2743 16.8776 53.0113 16.8776H47.8354C47.0478 7.42616 39.1716 0 29.6076 0C20.0436 0 12.1674 7.42616 11.3798 16.8776H6.20394C3.05345 16.8776 0.353027 19.4655 0.353027 22.7285V66.3854C0.353027 69.5359 2.94093 72.2363 6.20394 72.2363H8.56681C9.24192 76.6245 13.0675 80 17.6807 80C22.294 80 26.007 76.6245 26.7947 72.2363H64.263C64.9381 76.6245 68.7637 80 73.3769 80C77.9902 80 81.7032 76.6245 82.4909 72.2363H84.8537C88.0042 72.2363 90.7046 69.6484 90.7046 66.3854V51.4205C90.7046 49.9578 90.1421 48.6076 89.2419 47.5949L77.2025 34.3179ZM29.7201 3.03798C38.1589 3.03798 45.135 9.90155 45.135 18.4529C45.135 26.8917 38.2715 33.8678 29.7201 33.8678C21.2813 33.8678 14.3052 27.0042 14.3052 18.4529C14.3052 9.90155 21.1688 3.03798 29.7201 3.03798ZM17.6807 77.0745C14.1927 77.0745 11.3798 74.2616 11.3798 70.7736C11.3798 67.2855 14.1927 64.4726 17.6807 64.4726C21.1688 64.4726 23.9817 67.2855 23.9817 70.7736C23.9817 74.2616 21.1688 77.0745 17.6807 77.0745ZM56.0492 33.8678V56.0338H25.4444C24.6568 56.0338 23.9817 56.7089 23.9817 57.4965C23.9817 58.2841 24.6568 58.9592 25.4444 58.9592H56.0492V69.3108H26.7947C26.1196 64.9226 22.294 61.5471 17.6807 61.5471C13.0675 61.5471 9.35443 64.9226 8.56681 69.3108H6.20394C4.6287 69.3108 3.27848 67.9606 3.27848 66.3854V22.8411C3.27848 21.2658 4.6287 19.9156 6.20394 19.9156H11.3798C12.1674 29.3671 20.0436 36.7932 29.6076 36.7932C39.1716 36.7932 47.0478 29.3671 47.8354 19.9156H53.0113C54.5865 19.9156 55.9367 21.2658 55.9367 22.8411V33.8678H56.0492ZM79.4529 41.1814L85.9789 48.4951H68.4262C67.6385 48.4951 66.9634 47.82 66.9634 47.0324V42.6442C66.9634 41.8565 67.6385 41.1814 68.4262 41.1814H79.4529ZM73.2644 77.0745C69.7764 77.0745 66.9634 74.2616 66.9634 70.7736C66.9634 67.2855 69.7764 64.4726 73.2644 64.4726C76.7525 64.4726 79.5654 67.2855 79.5654 70.7736C79.5654 74.2616 76.7525 77.0745 73.2644 77.0745ZM87.5541 66.3854C87.5541 67.9606 86.2039 69.3108 84.6287 69.3108H82.2658C81.5907 64.9226 77.7651 61.5471 73.1519 61.5471C68.5387 61.5471 64.8256 64.9226 64.038 69.3108H58.7496V35.3305H72.7018C73.4894 35.3305 74.2771 35.6681 74.8397 36.3432L76.6399 38.3685H68.2011C65.8382 38.3685 63.8129 40.2813 63.8129 42.7567V47.1449C63.8129 49.5077 65.7257 51.5331 68.2011 51.5331H87.3291V66.3854H87.5541Z" fill="black"/>
<path d="M29.7205 19.9156H39.5096C40.2972 19.9156 40.9723 19.2405 40.9723 18.4529C40.9723 17.6653 40.2972 16.9902 39.5096 16.9902H31.1833V6.63854C31.1833 5.85092 30.5082 5.17581 29.7205 5.17581C28.9329 5.17581 28.2578 5.85092 28.2578 6.63854V18.4529C28.2578 19.2405 28.9329 19.9156 29.7205 19.9156Z" fill="black"/>
</svg>
