<svg width="80" height="80" viewBox="0 0 80 80" fill="none" xmlns="http://www.w3.org/2000/svg">
<path d="M40 80C62.0561 80 80 62.0561 80 40C80 17.9439 62.0561 0 40 0C17.9439 0 0 17.9439 0 40C0 62.0561 17.9439 80 40 80ZM40 3.56688C60.0897 3.56688 76.4331 19.9103 76.4331 40C76.4331 60.0897 60.0897 76.4331 40 76.4331C19.9103 76.4331 3.56688 60.0897 3.56688 40C3.56688 19.9103 19.9103 3.56688 40 3.56688Z" fill="black"/>
<path d="M30.1401 36.4051C34.2199 36.4051 37.5261 33.0981 37.5261 29.0196C37.5269 24.9404 34.2199 21.6331 30.1401 21.6331C26.0604 21.6331 22.7549 24.9401 22.7549 29.0186C22.7587 33.096 26.0629 36.4002 30.1404 36.4053L30.1401 36.4051ZM30.1401 25.2C32.2492 25.2 33.9592 26.9098 33.9592 29.0186C33.96 31.1287 32.2502 32.8385 30.1401 32.8385C28.0313 32.8385 26.3218 31.1287 26.3218 29.0186C26.3235 26.9108 28.0321 25.2031 30.1401 25.2ZM42.0262 51.4293C42.0262 55.5085 45.3332 58.8148 49.4117 58.8148C53.4912 58.8148 56.7985 55.5085 56.7985 51.429C56.7985 47.3495 53.4914 44.0425 49.4117 44.0425C45.3342 44.0476 42.0313 47.3516 42.0262 51.429V51.4293ZM53.2313 51.4293C53.2313 53.5381 51.5218 55.2479 49.4117 55.2479C47.3029 55.2479 45.5931 53.5381 45.5931 51.429C45.5931 49.32 47.3029 47.6104 49.4117 47.6094C51.5207 47.6125 53.2283 49.3202 53.2316 51.429L53.2313 51.4293ZM26.4204 60.8222C26.6165 60.9501 26.836 61.0382 27.0662 61.0813C27.2964 61.1244 27.5328 61.1218 27.762 61.0735C27.9912 61.0253 28.2087 60.9323 28.4019 60.8C28.5952 60.6677 28.7605 60.4986 28.8884 60.3024L54.0993 21.6464C54.2314 21.4502 54.3231 21.2298 54.3691 20.9979C54.4152 20.766 54.4147 20.5273 54.3677 20.2956C54.3207 20.0639 54.2281 19.8439 54.0953 19.6483C53.9624 19.4527 53.792 19.2854 53.594 19.1563C53.396 19.0271 53.1743 18.9387 52.9417 18.896C52.7092 18.8533 52.4705 18.8572 52.2395 18.9076C52.0085 18.958 51.7898 19.0538 51.5962 19.1895C51.4026 19.3251 51.2378 19.4979 51.1116 19.6978L25.9006 58.3536C25.7726 58.5498 25.6845 58.7693 25.6413 58.9995C25.5981 59.2298 25.6007 59.4662 25.649 59.6955C25.6973 59.9247 25.7902 60.1422 25.9226 60.3354C26.055 60.5287 26.2241 60.694 26.4204 60.8219V60.8222Z" fill="black"/>
</svg>
