<svg width="67" height="81" viewBox="0 0 67 81" fill="none" xmlns="http://www.w3.org/2000/svg">
<path d="M62.243 7.73536L34.8117 0.195009C33.7717 -0.065003 32.7316 -0.065003 31.8216 0.195009L4.26029 7.73536C1.79018 8.38539 0.100098 10.7255 0.100098 13.3256V33.3466C0.100098 53.8875 12.3207 72.0884 31.0415 79.6287C31.6916 79.8887 32.4716 80.0187 33.2517 80.0187C34.0317 80.0187 34.6817 79.8887 35.4618 79.6287C54.3126 71.9584 66.4032 53.7575 66.4032 33.2166V13.1956C66.4032 10.7255 64.7131 8.38539 62.243 7.73536ZM61.853 33.0866C61.853 51.5474 50.5425 68.4482 33.7717 75.2085C33.5117 75.3385 33.1216 75.3385 32.8616 75.2085C15.7008 68.4482 4.65031 51.9374 4.65031 33.2166V13.1956C4.65031 12.6756 5.04033 12.1556 5.56035 12.0256L32.9916 4.48521H33.5117L60.943 12.0256C61.463 12.1556 61.853 12.6756 61.853 13.1956V33.0866Z" fill="black"/>
<path d="M48.9821 27.8863L29.8712 43.877L21.0308 36.4667C20.1207 35.6866 18.6907 35.8166 17.7806 36.7267C16.8706 37.6367 17.1306 39.0668 18.0406 39.9768L28.3111 48.5572C28.7011 48.9472 29.2212 49.0772 29.7412 49.0772C30.2612 49.0772 30.7812 48.9472 31.1713 48.5572L51.7122 31.2664C52.6223 30.4864 52.7523 29.0563 51.9722 28.0163C51.3222 27.2362 49.8921 27.1062 48.9821 27.8863Z" fill="black"/>
</svg>
